<?xml version="1.0" standalone="no"?>
<!DOCTYPE svg PUBLIC "-//W3C//DTD SVG 1.1//EN" "http://www.w3.org/Graphics/SVG/1.1/DTD/svg11.dtd" >
<svg>
<metadata>
Created by FontForge 20090914 at Sun Mar 22 18:01:19 2020
 By www-data
Copyright (c) ParaGraph Intl, 1990-1994. All Rights Reserved. Beesknees is a registered trade mark of International Typeface Corporation.
</metadata>
<defs>
<font id="BeeskneesC" horiz-adv-x="536" >
  <font-face 
    font-family="BeeskneesC"
    font-weight="400"
    font-stretch="normal"
    units-per-em="1000"
    panose-1="4 0 5 0 0 0 0 0 0 0"
    ascent="707"
    descent="-293"
    x-height="684"
    cap-height="695"
    bbox="-35 -292.783 1077.13 988"
    underline-thickness="50"
    underline-position="-50"
    stemh="50"
    stemv="155"
    unicode-range="U+0020-U+2122"
  />
<missing-glyph horiz-adv-x="233" 
 />
    <glyph glyph-name=".notdef" horiz-adv-x="233" 
 />
    <glyph glyph-name="space" unicode=" " horiz-adv-x="233" 
 />
    <glyph glyph-name="space" unicode="&#xa0;" horiz-adv-x="233" 
 />
    <glyph glyph-name="exclam" unicode="!" horiz-adv-x="411" 
d="M87 775c51 2 87 4 119 4c44 0 93 -4 139 -10c17 -72 20 -126 20 -214c0 -122 -6 -212 -20 -315c-58 -13 -145 -26 -270 -15c14 97 22 190 22 314c0 83 -2 154 -10 236zM69 167c104 -6 194 1 264 12c-7 -95 -15 -141 -24 -180c-38 -8 -71 -11 -132 -11
c-62 0 -100 4 -134 9c9 34 22 89 26 170z" />
    <glyph glyph-name="quotedbl" unicode="&#x22;" horiz-adv-x="574" 
d="M41 775c83 13 161 11 232 0c-7 -74 -12 -160 -12 -232c0 -43 2 -99 4 -140c-69 -5 -134 -1 -195 10c-36 168 -35 285 -29 362zM307 775c72 10 123 7 218 -5c4 -102 0 -190 -24 -370c-57 0 -113 0 -168 1c-24 116 -29 205 -26 374z" />
    <glyph glyph-name="numbersign" unicode="#" horiz-adv-x="934" 
d="M308 539l55 145c47 5 96 5 146 2c-16 -51 -33 -100 -51 -148c56 4 108 4 156 2c17 53 37 101 60 145c50 4 97 4 141 0c-13 -48 -29 -99 -47 -151c51 2 100 1 147 -1c-12 -45 -29 -85 -49 -120c-50 1 -97 0 -143 -2c-20 -45 -40 -93 -59 -146c41 1 80 0 117 -2
c-11 -45 -27 -85 -46 -120c-40 1 -79 0 -116 -2c-20 -45 -37 -91 -53 -138c-49 -5 -97 -5 -146 -2c15 51 31 97 46 140c-46 -4 -95 -6 -148 -5l-53 -133c-53 -10 -103 -9 -150 0c15 43 32 89 51 138c-112 -1 -99 -1 -152 -2l41 116c56 4 107 5 155 5l55 154
c-47 -2 -92 -1 -135 1l49 123zM418 413l-54 -154c47 4 95 5 144 4c20 55 39 106 58 153c-46 -2 -96 -3 -148 -3z" />
    <glyph glyph-name="dollar" unicode="$" horiz-adv-x="730" 
d="M297 -100l3 74c-24 -14 -52 -24 -84 -28c-41 100 -61 187 -71 252c49 11 86 43 102 77c8 17 20 54 11 144c-7 68 -23 176 89 239c-4 33 -4 67 0 102c39 9 77 12 114 10l1 -74c33 9 65 12 98 9c10 -45 20 -109 18 -235c-25 -5 -78 -22 -78 -125c0 -42 5 -83 5 -125
c0 -106 -38 -156 -88 -185c5 -42 6 -87 1 -136c-37 -5 -78 -6 -121 1z" />
    <glyph glyph-name="percent" unicode="%" horiz-adv-x="1081" 
d="M749 748c89 0 69 0 163 -9c-173 -212 -237 -309 -312 -409c-45 -60 -57 -70 -147 -201c-31 -46 -53 -77 -88 -134h-71c-28 0 -52 0 -87 4c140 213 366 532 542 749zM259 451c0 27 20 47 47 47s47 -20 47 -47s-20 -47 -47 -47s-47 20 -47 47zM860 131c0 27 20 47 47 47
s47 -20 47 -47s-20 -47 -47 -47s-47 20 -47 47zM21 529c0 124 100 224 224 224c80 0 154 -43 194 -112c20 -34 30 -73 30 -112s-10 -78 -30 -112c-40 -69 -114 -112 -194 -112s-154 43 -194 112c-20 34 -30 73 -30 112zM618 210c0 124 100 224 224 224s224 -100 224 -224
s-100 -224 -224 -224s-224 100 -224 224z" />
    <glyph glyph-name="ampersand" unicode="&#x26;" horiz-adv-x="530" 
d="M91 826c46 5 134 15 182 15c33 0 62 -2 88 -6c5 -70 -1 -53 0 -136c76 -9 131 -32 186 -69c-44 -172 -98 -250 -108 -264c-11 7 -25 12 -38 12c-30 0 -39 -25 -39 -48c0 -14 8 -21 18 -26c-37 -9 -64 -39 -64 -81c0 -56 45 -82 91 -77c15 -53 21 -69 23 -107
c-20 -15 -41 -27 -65 -34c0 -80 1 -95 -1 -143c-42 -5 -107 -9 -164 2c7 49 6 55 12 132c-81 22 -126 91 -126 167c0 80 43 117 60 130c-77 27 -131 97 -131 185c0 155 127 210 206 225l-1 20c-23 0 -49 0 -121 -9c-4 62 -9 65 -8 112z" />
    <glyph glyph-name="quotesingle" unicode="'" horiz-adv-x="326" 
d="M43 774c79 17 130 10 229 -6c6 -66 12 -174 -24 -369c-62 2 -121 5 -178 11c-19 87 -32 193 -27 364z" />
    <glyph glyph-name="parenleft" unicode="(" horiz-adv-x="422" 
d="M272 914c44 -23 80 -52 109 -86c-105 -149 -145 -311 -145 -446c0 -137 46 -297 132 -436c-63 -48 -128 -82 -195 -105c-110 160 -150 331 -150 470c0 216 98 399 249 603z" />
    <glyph glyph-name="parenright" unicode=")" horiz-adv-x="422" 
d="M132 -151c-44 22 -80 51 -109 86c107 150 145 310 145 445c0 139 -46 298 -132 436c63 50 128 83 195 105c109 -159 150 -330 150 -470c0 -213 -98 -400 -249 -602z" />
    <glyph glyph-name="asterisk" unicode="*" horiz-adv-x="511" 
d="M28 654c14 25 33 48 59 67c31 -20 62 -45 91 -75c-4 44 -5 86 -3 128c35 5 71 8 103 8c11 0 23 0 34 -1c4 -48 4 -93 0 -136c32 30 70 58 116 81c21 -26 38 -53 52 -80c-39 -34 -80 -61 -120 -83c36 -23 71 -53 102 -92c-18 -22 -39 -44 -64 -65c-31 20 -58 44 -81 73
c2 -37 3 -73 1 -110c-23 -2 -46 -3 -69 -3c-22 0 -43 2 -65 5c-1 41 -1 80 -1 118c-27 -34 -57 -64 -90 -91c-23 21 -44 44 -62 71c35 36 72 66 109 91c-40 27 -77 59 -112 94z" />
    <glyph glyph-name="plus" unicode="+" horiz-adv-x="523" 
d="M202 580c18 3 54 6 138 3c-7 -34 -11 -69 -10 -173c59 1 141 -1 176 -4c3 -29 2 -42 2 -66c0 -19 1 -33 -1 -74c-29 3 -63 5 -87 5h-88c-1 -103 1 -72 4 -171c-46 -4 -87 -6 -136 -4c-3 28 -7 71 -8 102v75c-94 -5 -120 -1 -171 -7c-9 70 -6 121 -4 139c84 7 65 2 175 8
c-1 65 2 113 10 167z" />
    <glyph glyph-name="comma" unicode="," horiz-adv-x="314" 
d="M44 239c34 5 66 7 117 7c40 0 72 -2 110 -6c6 -32 11 -72 11 -131c0 -76 -11 -131 -58 -193c-38 -51 -94 -95 -195 -101c12 55 13 87 17 205c2 56 0 120 -2 219z" />
    <glyph glyph-name="hyphen" unicode="-" horiz-adv-x="356" 
d="M36 479c56 3 112 5 158 5c40 0 74 -1 119 -6c2 -26 4 -65 4 -96c0 -11 0 -41 -2 -114c-123 17 -189 26 -280 15c-4 74 -1 83 1 196z" />
    <glyph glyph-name="hyphen" unicode="&#xad;" horiz-adv-x="356" 
d="M36 479c56 3 112 5 158 5c40 0 74 -1 119 -6c2 -26 4 -65 4 -96c0 -11 0 -41 -2 -114c-123 17 -189 26 -280 15c-4 74 -1 83 1 196z" />
    <glyph glyph-name="period" unicode="." horiz-adv-x="310" 
d="M45 218c34 5 63 7 94 7c30 0 64 -1 126 -11c6 -34 7 -61 7 -95c0 -52 -2 -75 -7 -100c-31 -7 -70 -13 -125 -13c-36 0 -60 3 -89 12c-7 48 -13 66 -13 113c0 35 2 60 7 87z" />
    <glyph glyph-name="slash" unicode="/" horiz-adv-x="572" 
d="M370 791c67 4 130 4 189 0c-83 -154 -214 -415 -369 -846c-52 -8 -121 -7 -179 -1c150 421 279 691 359 847z" />
    <glyph glyph-name="zero" unicode="0" horiz-adv-x="793" 
d="M23 345c0 209 167 376 376 376s376 -167 376 -376s-167 -376 -376 -376s-376 167 -376 376zM428 208c0 -44 35 -78 77 -78c44 0 78 34 78 78c0 42 -34 77 -78 77c-43 0 -77 -34 -77 -77z" />
    <glyph glyph-name="one" unicode="1" horiz-adv-x="434" 
d="M22 473c22 63 55 143 110 227c28 2 57 4 99 4c69 0 117 -4 161 -9c-20 -97 -40 -231 -40 -464c0 -81 4 -155 11 -222c-44 -7 -73 -8 -121 -8c-54 0 -97 1 -162 8c-8 120 -12 184 -12 242c0 73 6 161 12 223c-21 0 -40 0 -58 -1z" />
    <glyph glyph-name="two" unicode="2" horiz-adv-x="591" 
d="M32 484c14 125 83 179 124 201c129 70 386 13 386 -197c0 -62 -24 -132 -90 -209c13 -3 27 -5 43 -5c6 -44 10 -94 10 -153c0 -40 -1 -76 -5 -115c-50 -4 -105 -6 -160 -6c-185 0 -291 14 -340 21l70 88l88 112c70 89 106 129 106 167c0 28 -18 41 -32 41
c-11 0 -24 -8 -31 -16c-53 21 -109 44 -169 71z" />
    <glyph glyph-name="three" unicode="3" horiz-adv-x="502" 
d="M74 471v40c0 59 2 109 24 179c51 2 108 4 164 4c68 0 123 -2 199 -15c-31 -95 -67 -156 -88 -189c39 -22 91 -65 91 -160c0 -133 -120 -303 -296 -416c-52 34 -120 87 -193 177c97 49 226 149 226 260c0 61 -45 79 -85 63l35 55h-18z" />
    <glyph glyph-name="four" unicode="4" horiz-adv-x="695" 
d="M239 686c100 5 134 6 150 6c58 0 108 -5 157 -16c1 -142 -1 -210 -6 -280c36 1 73 -1 112 -5c9 -67 10 -135 -1 -246c-44 0 -88 0 -131 1c1 -50 0 -100 -3 -151c-48 -5 -78 -5 -127 -5c-60 0 -98 1 -156 14c-3 34 -7 82 -7 122v35c-61 0 -126 2 -195 7zM444 309v115
c-23 -35 -46 -73 -68 -115h68z" />
    <glyph glyph-name="five" unicode="5" horiz-adv-x="548" 
d="M97 689h76c176 0 138 -4 341 -3c-2 -90 -9 -162 -15 -215c-97 -4 -167 -2 -317 5c-1 -28 -3 -58 -8 -88c18 13 58 37 117 37c110 0 198 -88 198 -217c0 -71 -34 -150 -80 -209c-99 -8 -143 -9 -194 -7c71 121 29 190 1 214c-27 23 -80 39 -159 2c16 125 34 350 40 481z
" />
    <glyph glyph-name="six" unicode="6" horiz-adv-x="703" 
d="M547 710c11 -26 26 -66 38 -114c5 -19 9 -38 12 -57c-52 -11 -103 -29 -152 -54c82 -8 132 -51 146 -65c94 -91 98 -246 -7 -351c-59 -59 -144 -90 -230 -90c-87 0 -163 32 -214 81c-55 52 -95 140 -95 232c0 89 37 264 260 362c101 44 190 54 242 56zM263 370
c-11 -18 -18 -40 -18 -57c0 -36 27 -55 54 -55c14 0 29 4 40 13s19 24 19 38c0 13 -5 26 -14 35c-16 17 -51 27 -81 26z" />
    <glyph glyph-name="seven" unicode="7" horiz-adv-x="525" 
d="M100 684c85 8 153 10 229 10c79 0 143 -2 229 -13c-90 -200 -189 -478 -209 -681c-38 -4 -69 -5 -123 -5c-59 0 -107 2 -170 9c46 182 103 320 143 405c-62 -4 -87 -2 -167 1c4 43 17 140 68 274z" />
    <glyph glyph-name="eight" unicode="8" horiz-adv-x="628" 
d="M475 424c101 -51 119 -143 119 -195c0 -92 -59 -185 -128 -226c-81 -48 -227 -48 -308 0c-69 41 -128 134 -128 226c0 52 18 144 119 195c-29 41 -34 81 -34 106c0 110 93 190 197 190s197 -80 197 -190c0 -25 -5 -65 -34 -106zM292 474c-21 -11 -24 -29 -24 -38
c0 -22 17 -44 44 -44c24 0 44 20 44 44c0 10 -4 27 -22 38c5 9 10 21 10 29c0 17 -11 32 -32 32c-22 0 -32 -17 -32 -32c0 -10 6 -22 12 -29z" />
    <glyph glyph-name="nine" unicode="9" horiz-adv-x="685" 
d="M616 695c19 -170 20 -302 20 -348c0 -70 -3 -170 -19 -347c-38 -6 -74 -10 -134 -10c-44 0 -89 2 -138 6c0 29 2 60 5 93c-95 11 -193 57 -252 132c-131 166 -42 402 205 462c88 21 216 22 313 12zM417 588c-33 -18 -52 -52 -52 -81c0 -20 9 -52 55 -63v70
c0 25 -1 49 -3 74z" />
    <glyph glyph-name="colon" unicode=":" horiz-adv-x="317" 
d="M46 594c18 3 60 11 109 11c40 0 69 -4 113 -11c9 -28 11 -47 11 -94c0 -48 -1 -71 -7 -105c-27 -6 -58 -10 -93 -10c-38 0 -93 7 -127 14c-8 32 -14 74 -14 105c0 16 2 36 8 90zM47 215c20 4 50 9 110 9c40 0 83 -4 110 -6c5 -28 7 -51 7 -85c0 -70 -4 -106 -6 -120
c-47 -8 -82 -9 -102 -9c-37 0 -83 5 -112 9c-11 41 -16 70 -16 117c0 27 3 55 9 85z" />
    <glyph glyph-name="semicolon" unicode=";" horiz-adv-x="314" 
d="M44 239c39 8 61 8 104 8c51 0 76 0 123 -7c6 -30 11 -61 11 -105c0 -103 -10 -157 -57 -219c-29 -38 -83 -95 -196 -101c12 53 11 76 17 205c4 80 -3 91 -2 219zM48 596c21 3 77 9 113 9c31 0 79 -4 109 -11c12 -45 10 -70 10 -105c0 -29 1 -51 -6 -94
c-22 -4 -56 -9 -88 -9c-37 0 -97 7 -132 13c-8 31 -14 74 -14 105c0 21 6 75 8 92z" />
    <glyph glyph-name="less" unicode="&#x3c;" horiz-adv-x="481" 
d="M254 374c120 -109 176 -168 235 -243c-40 -37 -85 -67 -136 -89c-65 77 -197 217 -335 303c108 178 208 287 345 379c46 -27 89 -65 126 -115c-131 -85 -196 -170 -235 -235z" />
    <glyph glyph-name="equal" unicode="=" horiz-adv-x="602" 
d="M33 533c162 -3 224 -4 273 -4h267c6 -38 8 -80 3 -125c-44 0 -89 0 -133 1c-56 1 -112 4 -168 4c-41 0 -79 -1 -241 -6c-7 46 -7 89 -1 130zM34 340c181 10 239 6 335 8c72 2 113 5 206 -2c7 -47 6 -90 1 -130c-73 3 -151 5 -230 5c-52 0 -121 -1 -310 -5
c-6 44 -6 85 -2 124z" />
    <glyph glyph-name="greater" unicode="&#x3e;" horiz-adv-x="481" 
d="M253 392c-120 109 -176 168 -235 243c40 37 85 67 136 89c65 -77 197 -217 335 -303c-108 -178 -208 -287 -345 -379c-46 27 -89 65 -126 115c131 85 196 170 235 235z" />
    <glyph glyph-name="question" unicode="?" horiz-adv-x="566" 
d="M11 669c110 79 270 79 363 35c143 -68 222 -275 116 -426c-44 -62 -137 -136 -317 -130c-2 11 -5 38 -2 95l30 -4c18 -2 47 -4 64 21c14 21 7 51 -10 64c-30 24 -79 0 -97 -8l-15 -7c-57 94 -100 200 -132 360zM110 82c80 33 140 50 184 61c30 -66 40 -95 48 -125
c-36 -17 -80 -35 -181 -66c-23 53 -23 59 -51 130z" />
    <glyph glyph-name="A" unicode="A" horiz-adv-x="773" 
d="M464 749c78 -92 191 -245 312 -554c-81 -112 -191 -194 -262 -239c-34 160 -87 270 -116 324c-97 -121 -156 -236 -192 -324c-48 34 -133 102 -217 228c184 265 339 436 475 565zM302 119c65 11 103 26 125 36c10 -23 23 -61 29 -131c-57 -23 -105 -30 -135 -32
c-1 41 -7 73 -19 127z" />
    <glyph glyph-name="B" unicode="B" horiz-adv-x="660" 
d="M60 610c57 50 146 104 283 104c196 0 307 -137 307 -290c0 -67 -20 -176 -135 -246c22 -25 25 -53 25 -70c0 -74 -78 -167 -217 -167c-122 0 -220 73 -265 115c-9 76 -13 137 -13 227c0 120 2 212 15 327zM322 334c-2 -17 -3 -33 -3 -50c0 -13 1 -27 3 -40
c30 -11 58 10 58 43c0 27 -16 48 -35 48c-8 0 -20 -1 -23 -1zM323 141v-63c26 -6 46 11 46 35c0 27 -19 31 -31 31c-5 0 -10 -1 -15 -3z" />
    <glyph glyph-name="C" unicode="C" horiz-adv-x="635" 
d="M574 94c10 -31 11 -52 11 -78v-26c-52 -15 -109 -25 -183 -25c-246 0 -377 147 -377 329c0 169 129 407 445 407c48 0 92 -4 131 -11c5 -56 5 -96 5 -170c0 -106 -2 -177 -30 -294c-31 6 -45 10 -60 10c-45 0 -80 -20 -80 -58c0 -36 32 -87 138 -84z" />
    <glyph glyph-name="D" unicode="D" horiz-adv-x="662" 
d="M78 679c27 3 54 5 95 5c90 0 168 -7 235 -30c218 -74 292 -307 179 -481c-112 -173 -325 -194 -523 -177c-12 95 -21 207 -21 326c0 156 8 207 35 357zM258 224c-1 -22 -2 -45 -2 -67c0 -28 1 -50 2 -69c24 13 50 40 50 78c0 27 -19 55 -50 58z" />
    <glyph glyph-name="E" unicode="E" horiz-adv-x="584" 
d="M319 241h71c55 0 96 2 148 10c-2 -31 -6 -118 11 -248c-86 -14 -146 -16 -251 -16c-85 0 -143 2 -229 10c-16 124 -28 274 -28 389c0 139 14 239 24 299c76 11 126 12 195 12c110 0 183 -3 285 -17c-8 -60 -10 -140 -10 -179v-41c-26 1 -51 2 -96 2c-47 0 -78 -1 -120 -5
c1 -14 4 -74 4 -104s-3 -85 -4 -112zM338 370c52 32 107 56 165 73c23 -56 30 -72 36 -103c-57 -31 -113 -54 -167 -70c-7 23 -10 32 -16 49c-7 18 -11 27 -18 51z" />
    <glyph glyph-name="F" unicode="F" horiz-adv-x="555" 
d="M523 460c-103 5 -167 2 -205 -1c-4 -42 -5 -74 -5 -125c0 -188 10 -269 20 -333c-53 -6 -151 -13 -275 2c-9 121 -17 199 -17 315c0 166 15 292 29 375c49 3 116 7 169 7c72 0 215 -7 298 -15c-12 -83 -14 -140 -14 -185v-40zM334 373c27 17 72 43 139 63
c14 -34 26 -68 40 -133c-33 -16 -70 -31 -149 -54c-4 22 -11 55 -30 124z" />
    <glyph glyph-name="G" unicode="G" horiz-adv-x="691" 
d="M657 251c8 -66 -4 -159 -32 -233c-68 -32 -143 -46 -210 -46c-91 0 -187 33 -259 86c-88 66 -133 151 -133 269c0 107 37 205 135 288c84 72 194 110 292 110c89 0 179 -33 245 -74c-23 -110 -64 -240 -145 -389c-6 2 -20 7 -35 7c-43 0 -53 -33 -53 -53
c0 -30 21 -41 38 -41c45 0 45 43 45 61v14c40 5 77 5 112 1z" />
    <glyph glyph-name="H" unicode="H" horiz-adv-x="723" 
d="M64 696c123 6 188 6 260 3c-7 -58 -12 -127 -12 -204v-32c31 9 63 20 96 33c0 59 4 131 20 199c66 5 141 7 270 -4c-20 -114 -25 -210 -25 -313c0 -221 18 -331 27 -378c-92 -5 -141 -5 -154 -5c-48 0 -80 3 -113 8c-24 159 -27 253 -26 303c-29 -14 -59 -27 -90 -38
c4 -106 13 -193 22 -259c-112 -16 -197 -15 -254 -12c-29 182 -37 301 -37 446c0 93 4 166 16 253z" />
    <glyph glyph-name="I" unicode="I" horiz-adv-x="388" 
d="M80 691c78 9 165 11 282 -7c-16 -102 -35 -281 -35 -379c0 -89 14 -221 27 -308c-40 -7 -142 -21 -278 -7c-15 115 -27 213 -27 327c0 59 1 199 31 374z" />
    <glyph glyph-name="J" unicode="J" horiz-adv-x="400" 
d="M63 693c85 7 179 7 280 -3c13 -75 20 -154 20 -249c0 -280 -45 -486 -180 -685c-101 86 -149 140 -186 191c67 129 89 254 89 454c0 122 -5 197 -23 292z" />
    <glyph glyph-name="K" unicode="K" horiz-adv-x="670" 
d="M479 704c51 -25 116 -67 202 -159c-67 -146 -118 -235 -162 -305c34 -42 60 -69 120 -130c-85 -94 -153 -146 -204 -179c-68 61 -101 113 -121 149l-3 -1v-87c-90 -4 -175 -4 -254 0c-7 71 -16 178 -16 305c0 141 9 263 36 401c42 2 124 3 270 -15
c-26 -125 -36 -219 -40 -277l-2 -29l2 1c32 53 85 144 172 326z" />
    <glyph glyph-name="L" unicode="L" horiz-adv-x="476" 
d="M78 699c116 8 191 9 283 2c-30 -131 -42 -257 -40 -403c48 -4 95 -4 141 0c-2 -36 -2 -61 -2 -117c0 -64 0 -109 11 -182c-47 -5 -86 -7 -144 -7c-118 0 -199 7 -261 14c-10 62 -21 167 -21 347c0 101 5 204 33 346z" />
    <glyph glyph-name="M" unicode="M" horiz-adv-x="898" 
d="M392 765c20 -31 41 -66 62 -105c21 36 47 74 78 113c155 -170 282 -366 377 -583c-46 -61 -106 -126 -233 -225c-42 122 -76 191 -99 233c-53 -85 -106 -142 -141 -177c-38 39 -90 102 -122 178c-38 -55 -84 -130 -130 -227c-110 101 -159 164 -198 232
c161 298 292 454 406 561z" />
    <glyph glyph-name="N" unicode="N" horiz-adv-x="696" 
d="M665 689c-14 -143 -21 -284 -25 -470c-4 -171 0 -126 5 -299c-94 50 -188 109 -336 220c0 -50 2 -98 6 -143c-79 -7 -163 -8 -251 -1c-8 115 -14 244 -14 354c0 140 8 271 34 416c83 -68 144 -108 312 -211v22c0 51 3 92 8 128c42 1 115 0 261 -16z" />
    <glyph glyph-name="O" unicode="O" horiz-adv-x="793" 
d="M23 345c0 209 167 376 376 376s376 -167 376 -376s-167 -376 -376 -376s-376 167 -376 376zM428 208c0 -44 35 -78 77 -78c44 0 78 34 78 78c0 42 -34 77 -78 77c-43 0 -77 -34 -77 -77z" />
    <glyph glyph-name="P" unicode="P" horiz-adv-x="646" 
d="M79 695c34 5 71 8 121 8c120 0 272 -22 367 -135c56 -66 97 -174 46 -290c-45 -103 -154 -183 -287 -193c3 -27 6 -56 10 -88c-149 -15 -256 2 -279 6c-10 95 -18 207 -18 341c0 111 3 218 40 351zM318 285c-1 -22 -2 -45 -2 -67c0 -18 1 -37 2 -55c39 15 44 46 44 63
c0 42 -32 55 -44 59z" />
    <glyph glyph-name="Q" unicode="Q" horiz-adv-x="795" 
d="M527 -94l-55 74c-225 -39 -447 122 -447 370c0 208 168 376 376 376s376 -168 376 -376c0 -68 -19 -157 -83 -240l46 -72c-73 -54 -144 -97 -213 -132zM427 215c0 -44 34 -77 78 -77s77 33 77 77s-33 78 -77 78s-78 -34 -78 -78z" />
    <glyph glyph-name="R" unicode="R" horiz-adv-x="665" 
d="M326 88v-85c-103 -11 -146 -7 -265 -2c-6 66 -13 166 -13 268c0 122 11 258 41 430c58 4 95 5 119 5c345 0 429 -184 429 -316c0 -75 -24 -125 -67 -182c36 -41 62 -85 82 -127c-104 -72 -160 -106 -221 -137c-45 75 -74 113 -105 146zM327 259l2 -78l31 10
c38 12 40 38 40 51c0 30 -29 25 -41 25c-7 0 -14 -3 -21 -5z" />
    <glyph glyph-name="S" unicode="S" horiz-adv-x="524" 
d="M367 710c44 -53 95 -120 172 -247c-76 -51 -105 -108 -131 -194c-26 -85 -63 -216 -254 -314c-91 111 -133 179 -167 248c102 63 132 147 175 252c40 100 88 189 205 255z" />
    <glyph glyph-name="T" unicode="T" 
d="M26 683c113 10 200 10 224 10c96 0 217 -8 274 -12c13 -112 12 -183 6 -241c-36 -6 -76 -10 -118 -11c3 -45 3 -90 3 -153c0 -108 -7 -194 -18 -285c-60 -2 -150 -2 -259 13c-2 31 -6 101 -6 177c0 93 3 168 10 242c-49 4 -94 7 -137 11c-5 110 7 188 21 249z" />
    <glyph glyph-name="U" unicode="U" horiz-adv-x="678" 
d="M455 666c60 7 122 7 186 -2c8 -50 14 -104 14 -176c0 -319 -148 -512 -329 -512c-112 0 -283 62 -283 414c0 76 7 195 22 286c37 4 86 8 137 8c52 0 108 -4 157 -11c-3 -53 -5 -99 -5 -147c0 -37 2 -87 44 -87c63 0 57 88 57 159v68z" />
    <glyph glyph-name="V" unicode="V" horiz-adv-x="796" 
d="M0 588c55 35 135 83 258 140l160 -263c64 81 92 135 162 258c88 -34 172 -69 250 -105c-61 -136 -188 -380 -447 -663c-121 151 -262 358 -383 633z" />
    <glyph glyph-name="W" unicode="W" horiz-adv-x="922" 
d="M-10 618c133 69 216 91 245 98c30 -72 67 -147 114 -222c30 57 66 116 110 177c47 -65 85 -131 114 -196c72 106 114 189 137 238c129 -49 189 -76 247 -107c-148 -326 -309 -528 -444 -667c-37 48 -71 103 -99 166c-35 -51 -76 -104 -126 -156
c-93 143 -209 354 -298 669z" />
    <glyph glyph-name="X" unicode="X" horiz-adv-x="775" 
d="M30 515c49 57 123 136 227 223c57 -48 111 -96 160 -145c50 45 103 81 157 111c51 -50 117 -123 182 -228c-47 -32 -89 -68 -126 -106c56 -76 99 -140 129 -187c-57 -72 -114 -127 -249 -229c-59 102 -93 151 -126 194c-89 -84 -137 -157 -162 -201
c-121 91 -165 119 -239 193c44 68 92 131 192 240c-47 53 -97 98 -145 135z" />
    <glyph glyph-name="Y" unicode="Y" horiz-adv-x="708" 
d="M-7 640c51 29 117 62 235 103c34 -63 80 -145 143 -237c44 69 75 129 130 243c122 -60 183 -96 235 -134c-86 -195 -292 -511 -446 -704c-95 53 -171 109 -229 157c77 93 120 158 148 206c-117 164 -176 279 -216 366z" />
    <glyph glyph-name="Z" unicode="Z" horiz-adv-x="723" 
d="M106 410v71c0 72 2 133 8 200c56 5 126 9 225 9c160 0 316 -11 410 -19c-138 -193 -211 -332 -245 -401c45 -3 92 -6 142 -9c0 -55 0 -93 -6 -261c-79 -8 -141 -10 -237 -10c-187 0 -217 7 -410 23c61 124 155 282 234 388c-42 0 -83 3 -121 9z" />
    <glyph glyph-name="bracketleft" unicode="[" horiz-adv-x="377" 
d="M71 794c82 16 172 27 270 31c4 -27 6 -54 7 -82c-36 -4 -69 -11 -100 -18c-17 -237 -19 -542 -15 -746c37 -17 73 -25 108 -27c-1 -24 -1 -48 -2 -73c-92 0 -188 12 -286 40c-9 93 -13 174 -13 282c0 109 3 323 31 593z" />
    <glyph glyph-name="backslash" unicode="\" horiz-adv-x="515" 
d="M7 708c56 4 111 4 163 1c139 -271 190 -410 330 -753c-52 -8 -115 -7 -166 -2c-115 299 -182 452 -327 754z" />
    <glyph glyph-name="bracketright" unicode="]" horiz-adv-x="377" 
d="M317 794c28 -270 31 -484 31 -596c0 -105 -4 -186 -13 -279c-98 -28 -194 -40 -286 -40c-1 25 -1 49 -2 73c35 1 71 9 108 27c4 204 2 509 -15 746c-31 7 -64 14 -100 18c1 28 3 55 7 82c98 -4 188 -15 270 -31z" />
    <glyph glyph-name="grave" unicode="`" horiz-adv-x="463" 
d="M129 928c47 -7 127 -22 228 -61c-5 -33 -13 -69 -25 -106c-116 31 -185 43 -237 50c5 40 16 79 34 117z" />
    <glyph glyph-name="a" unicode="a" horiz-adv-x="773" 
d="M464 749c78 -92 191 -245 312 -554c-81 -112 -191 -194 -262 -239c-34 160 -87 270 -116 324c-97 -121 -156 -236 -192 -324c-48 34 -133 102 -217 228c184 265 339 436 475 565zM302 119c65 11 103 26 125 36c10 -23 23 -61 29 -131c-57 -23 -105 -30 -135 -32
c-1 41 -7 73 -19 127z" />
    <glyph glyph-name="b" unicode="b" horiz-adv-x="660" 
d="M60 610c57 50 146 104 283 104c196 0 307 -137 307 -290c0 -67 -20 -176 -135 -246c22 -25 25 -53 25 -70c0 -74 -78 -167 -217 -167c-122 0 -220 73 -265 115c-9 76 -13 137 -13 227c0 120 2 212 15 327zM322 334c-2 -17 -3 -33 -3 -50c0 -13 1 -27 3 -40
c30 -11 58 10 58 43c0 27 -16 48 -35 48c-8 0 -20 -1 -23 -1zM323 141v-63c26 -6 46 11 46 35c0 27 -19 31 -31 31c-5 0 -10 -1 -15 -3z" />
    <glyph glyph-name="c" unicode="c" horiz-adv-x="635" 
d="M574 94c10 -31 11 -52 11 -78v-26c-52 -15 -109 -25 -183 -25c-246 0 -377 147 -377 329c0 169 129 407 445 407c48 0 92 -4 131 -11c5 -56 5 -96 5 -170c0 -106 -2 -177 -30 -294c-31 6 -45 10 -60 10c-45 0 -80 -20 -80 -58c0 -36 32 -87 138 -84z" />
    <glyph glyph-name="d" unicode="d" horiz-adv-x="662" 
d="M78 679c27 3 54 5 95 5c90 0 168 -7 235 -30c218 -74 292 -307 179 -481c-112 -173 -325 -194 -523 -177c-12 95 -21 207 -21 326c0 156 8 207 35 357zM258 224c-1 -22 -2 -45 -2 -67c0 -28 1 -50 2 -69c24 13 50 40 50 78c0 27 -19 55 -50 58z" />
    <glyph glyph-name="e" unicode="e" horiz-adv-x="584" 
d="M319 241h71c55 0 96 2 148 10c-2 -31 -6 -118 11 -248c-86 -14 -146 -16 -251 -16c-85 0 -143 2 -229 10c-16 124 -28 274 -28 389c0 139 14 239 24 299c76 11 126 12 195 12c110 0 183 -3 285 -17c-8 -60 -10 -140 -10 -179v-41c-26 1 -51 2 -96 2c-47 0 -78 -1 -120 -5
c1 -14 4 -74 4 -104s-3 -85 -4 -112zM338 370c52 32 107 56 165 73c23 -56 30 -72 36 -103c-57 -31 -113 -54 -167 -70c-7 23 -10 32 -16 49c-7 18 -11 27 -18 51z" />
    <glyph glyph-name="f" unicode="f" horiz-adv-x="555" 
d="M523 460c-103 5 -167 2 -205 -1c-4 -42 -5 -74 -5 -125c0 -188 10 -269 20 -333c-53 -6 -151 -13 -275 2c-9 121 -17 199 -17 315c0 166 15 292 29 375c49 3 116 7 169 7c72 0 215 -7 298 -15c-12 -83 -14 -140 -14 -185v-40zM334 373c27 17 72 43 139 63
c14 -34 26 -68 40 -133c-33 -16 -70 -31 -149 -54c-4 22 -11 55 -30 124z" />
    <glyph glyph-name="g" unicode="g" horiz-adv-x="691" 
d="M657 251c8 -66 -4 -159 -32 -233c-68 -32 -143 -46 -210 -46c-91 0 -187 33 -259 86c-88 66 -133 151 -133 269c0 107 37 205 135 288c84 72 194 110 292 110c89 0 179 -33 245 -74c-23 -110 -64 -240 -145 -389c-6 2 -20 7 -35 7c-43 0 -53 -33 -53 -53
c0 -30 21 -41 38 -41c45 0 45 43 45 61v14c40 5 77 5 112 1z" />
    <glyph glyph-name="h" unicode="h" horiz-adv-x="723" 
d="M64 696c123 6 188 6 260 3c-7 -58 -12 -127 -12 -204v-32c31 9 63 20 96 33c0 59 4 131 20 199c66 5 141 7 270 -4c-20 -114 -25 -210 -25 -313c0 -221 18 -331 27 -378c-92 -5 -141 -5 -154 -5c-48 0 -80 3 -113 8c-24 159 -27 253 -26 303c-29 -14 -59 -27 -90 -38
c4 -106 13 -193 22 -259c-112 -16 -197 -15 -254 -12c-29 182 -37 301 -37 446c0 93 4 166 16 253z" />
    <glyph glyph-name="i" unicode="i" horiz-adv-x="388" 
d="M80 691c78 9 165 11 282 -7c-16 -102 -35 -281 -35 -379c0 -89 14 -221 27 -308c-40 -7 -142 -21 -278 -7c-15 115 -27 213 -27 327c0 59 1 199 31 374z" />
    <glyph glyph-name="j" unicode="j" horiz-adv-x="400" 
d="M63 693c85 7 179 7 280 -3c13 -75 20 -154 20 -249c0 -280 -45 -486 -180 -685c-101 86 -149 140 -186 191c67 129 89 254 89 454c0 122 -5 197 -23 292z" />
    <glyph glyph-name="k" unicode="k" horiz-adv-x="670" 
d="M479 704c51 -25 116 -67 202 -159c-67 -146 -118 -235 -162 -305c34 -42 60 -69 120 -130c-85 -94 -153 -146 -204 -179c-68 61 -101 113 -121 149l-3 -1v-87c-90 -4 -175 -4 -254 0c-7 71 -16 178 -16 305c0 141 9 263 36 401c42 2 124 3 270 -15
c-26 -125 -36 -219 -40 -277l-2 -29l2 1c32 53 85 144 172 326z" />
    <glyph glyph-name="l" unicode="l" horiz-adv-x="476" 
d="M78 699c116 8 191 9 283 2c-30 -131 -42 -257 -40 -403c48 -4 95 -4 141 0c-2 -36 -2 -61 -2 -117c0 -64 0 -109 11 -182c-47 -5 -86 -7 -144 -7c-118 0 -199 7 -261 14c-10 62 -21 167 -21 347c0 101 5 204 33 346z" />
    <glyph glyph-name="m" unicode="m" horiz-adv-x="898" 
d="M392 765c20 -31 41 -66 62 -105c21 36 47 74 78 113c155 -170 282 -366 377 -583c-46 -61 -106 -126 -233 -225c-42 122 -76 191 -99 233c-53 -85 -106 -142 -141 -177c-38 39 -90 102 -122 178c-38 -55 -84 -130 -130 -227c-110 101 -159 164 -198 232
c161 298 292 454 406 561z" />
    <glyph glyph-name="n" unicode="n" horiz-adv-x="696" 
d="M665 689c-14 -143 -21 -284 -25 -470c-4 -171 0 -126 5 -299c-94 50 -188 109 -336 220c0 -50 2 -98 6 -143c-79 -7 -163 -8 -251 -1c-8 115 -14 244 -14 354c0 140 8 271 34 416c83 -68 144 -108 312 -211v22c0 51 3 92 8 128c42 1 115 0 261 -16z" />
    <glyph glyph-name="o" unicode="o" horiz-adv-x="793" 
d="M23 345c0 209 167 376 376 376s376 -167 376 -376s-167 -376 -376 -376s-376 167 -376 376zM428 208c0 -44 35 -78 77 -78c44 0 78 34 78 78c0 42 -34 77 -78 77c-43 0 -77 -34 -77 -77z" />
    <glyph glyph-name="p" unicode="p" horiz-adv-x="646" 
d="M79 695c34 5 71 8 121 8c120 0 272 -22 367 -135c56 -66 97 -174 46 -290c-45 -103 -154 -183 -287 -193c3 -27 6 -56 10 -88c-149 -15 -256 2 -279 6c-10 95 -18 207 -18 341c0 111 3 218 40 351zM318 285c-1 -22 -2 -45 -2 -67c0 -18 1 -37 2 -55c39 15 44 46 44 63
c0 42 -32 55 -44 59z" />
    <glyph glyph-name="q" unicode="q" horiz-adv-x="795" 
d="M527 -94l-55 74c-225 -39 -447 122 -447 370c0 208 168 376 376 376s376 -168 376 -376c0 -68 -19 -157 -83 -240l46 -72c-73 -54 -144 -97 -213 -132zM427 215c0 -44 34 -77 78 -77s77 33 77 77s-33 78 -77 78s-78 -34 -78 -78z" />
    <glyph glyph-name="r" unicode="r" horiz-adv-x="665" 
d="M326 88v-85c-103 -11 -146 -7 -265 -2c-6 66 -13 166 -13 268c0 122 11 258 41 430c58 4 95 5 119 5c345 0 429 -184 429 -316c0 -75 -24 -125 -67 -182c36 -41 62 -85 82 -127c-104 -72 -160 -106 -221 -137c-45 75 -74 113 -105 146zM327 259l2 -78l31 10
c38 12 40 38 40 51c0 30 -29 25 -41 25c-7 0 -14 -3 -21 -5z" />
    <glyph glyph-name="s" unicode="s" horiz-adv-x="524" 
d="M367 710c44 -53 95 -120 172 -247c-76 -51 -105 -108 -131 -194c-26 -85 -63 -216 -254 -314c-91 111 -133 179 -167 248c102 63 132 147 175 252c40 100 88 189 205 255z" />
    <glyph glyph-name="t" unicode="t" 
d="M26 683c113 10 200 10 224 10c96 0 217 -8 274 -12c13 -112 12 -183 6 -241c-36 -6 -76 -10 -118 -11c3 -45 3 -90 3 -153c0 -108 -7 -194 -18 -285c-60 -2 -150 -2 -259 13c-2 31 -6 101 -6 177c0 93 3 168 10 242c-49 4 -94 7 -137 11c-5 110 7 188 21 249z" />
    <glyph glyph-name="u" unicode="u" horiz-adv-x="678" 
d="M455 666c60 7 122 7 186 -2c8 -50 14 -104 14 -176c0 -319 -148 -512 -329 -512c-112 0 -283 62 -283 414c0 76 7 195 22 286c37 4 86 8 137 8c52 0 108 -4 157 -11c-3 -53 -5 -99 -5 -147c0 -37 2 -87 44 -87c63 0 57 88 57 159v68z" />
    <glyph glyph-name="v" unicode="v" horiz-adv-x="796" 
d="M0 588c55 35 135 83 258 140l160 -263c64 81 92 135 162 258c88 -34 172 -69 250 -105c-61 -136 -188 -380 -447 -663c-121 151 -262 358 -383 633z" />
    <glyph glyph-name="w" unicode="w" horiz-adv-x="922" 
d="M-10 618c133 69 216 91 245 98c30 -72 67 -147 114 -222c30 57 66 116 110 177c47 -65 85 -131 114 -196c72 106 114 189 137 238c129 -49 189 -76 247 -107c-148 -326 -309 -528 -444 -667c-37 48 -71 103 -99 166c-35 -51 -76 -104 -126 -156
c-93 143 -209 354 -298 669z" />
    <glyph glyph-name="x" unicode="x" horiz-adv-x="775" 
d="M30 515c49 57 123 136 227 223c57 -48 111 -96 160 -145c50 45 103 81 157 111c51 -50 117 -123 182 -228c-47 -32 -89 -68 -126 -106c56 -76 99 -140 129 -187c-57 -72 -114 -127 -249 -229c-59 102 -93 151 -126 194c-89 -84 -137 -157 -162 -201
c-121 91 -165 119 -239 193c44 68 92 131 192 240c-47 53 -97 98 -145 135z" />
    <glyph glyph-name="y" unicode="y" horiz-adv-x="708" 
d="M-7 640c51 29 117 62 235 103c34 -63 80 -145 143 -237c44 69 75 129 130 243c122 -60 183 -96 235 -134c-86 -195 -292 -511 -446 -704c-95 53 -171 109 -229 157c77 93 120 158 148 206c-117 164 -176 279 -216 366z" />
    <glyph glyph-name="z" unicode="z" horiz-adv-x="723" 
d="M106 410v71c0 72 2 133 8 200c56 5 126 9 225 9c160 0 316 -11 410 -19c-138 -193 -211 -332 -245 -401c45 -3 92 -6 142 -9c0 -55 0 -93 -6 -261c-79 -8 -141 -10 -237 -10c-187 0 -217 7 -410 23c61 124 155 282 234 388c-42 0 -83 3 -121 9z" />
    <glyph glyph-name="braceleft" unicode="{" horiz-adv-x="413" 
d="M211 819c62 -4 123 -9 182 -15c-61 -71 -84 -146 -97 -212c-22 -108 -21 -162 -81 -229c72 -74 78 -144 105 -307c11 -68 25 -117 50 -175c-55 -10 -111 -13 -167 -11c-60 230 -48 278 -83 360c-10 23 -38 81 -100 133c61 48 71 91 87 175c22 111 45 195 104 281z" />
    <glyph glyph-name="bar" unicode="|" horiz-adv-x="689" 
d="M326 754c41 6 80 7 118 5c-31 -514 -39 -607 -51 -863c-42 -3 -83 -3 -121 0c25 440 44 540 54 858z" />
    <glyph glyph-name="braceright" unicode="}" horiz-adv-x="398" 
d="M239 799c61 -111 69 -179 85 -273c14 -79 26 -130 74 -190c-39 -38 -73 -86 -96 -156c-33 -99 -35 -183 -119 -315c-29 -1 -80 0 -173 20c66 74 74 115 84 161c37 170 63 237 115 300c-47 76 -41 122 -47 178c-8 82 -34 182 -100 271c62 4 121 6 177 4z" />
    <glyph glyph-name="brokenbar" unicode="&#xa6;" horiz-adv-x="199" 
d="M46 406c-5 56 -8 116 -8 182s2 120 6 171c20 3 41 5 61 5c16 0 32 0 48 -2c-3 -217 3 -297 9 -354h-22c-16 0 -32 1 -48 1c-15 0 -31 -1 -46 -3zM49 -104c-14 73 -13 119 -13 190c0 83 2 134 8 211c23 2 47 4 70 4c14 0 29 0 43 -1c-5 -83 -4 -132 -4 -216
c0 -73 0 -116 10 -188c-23 -8 -37 -4 -71 -4c-14 0 -29 2 -43 4z" />
    <glyph glyph-name="section" unicode="&#xa7;" horiz-adv-x="652" 
d="M590 759c19 -74 28 -143 34 -280c-24 -2 -56 -12 -75 -33c-45 -50 -12 -127 1 -160c18 -46 72 -179 -70 -237c60 -25 96 -78 96 -140c0 -45 -13 -129 -121 -175c-139 -59 -336 -7 -432 27c-6 32 -17 101 -18 215c40 3 114 25 114 119c0 43 -16 83 -30 124
c-13 37 -24 74 -24 113c0 94 60 135 110 147c-75 58 -70 160 -24 222c33 44 102 94 234 94c84 0 149 -14 205 -36zM221 243c0 -56 44 -100 100 -100s100 44 100 100s-44 100 -100 100s-100 -44 -100 -100z" />
    <glyph glyph-name="copyright" unicode="&#xa9;" horiz-adv-x="792" 
d="M23 346c0 208 167 375 375 375c210 0 376 -167 376 -375c0 -209 -167 -376 -376 -376c-208 0 -375 166 -375 376zM523 566c1 -25 2 -47 2 -85c0 -69 -2 -115 -15 -183c-9 3 -21 5 -33 5c-37 0 -51 -19 -51 -37c0 -20 20 -53 76 -53h7c7 -21 5 -30 5 -56
c-35 -12 -66 -15 -104 -15c-173 0 -221 115 -221 192c0 126 100 238 268 238c28 0 48 -2 66 -6zM86 346c0 -177 137 -313 312 -313c176 0 313 137 313 313c0 175 -136 312 -313 312c-175 0 -312 -137 -312 -312z" />
    <glyph glyph-name="guillemotleft" unicode="&#xab;" horiz-adv-x="619" 
d="M603 459c-59 -48 -108 -98 -148 -149c44 -63 84 -123 119 -180c-37 -26 -79 -48 -126 -66c-26 47 -73 129 -173 244c35 61 97 150 208 242c43 -26 83 -56 120 -91zM338 500c-48 -61 -95 -125 -140 -190c52 -55 94 -111 129 -167c-43 -26 -87 -49 -133 -69
c-76 120 -120 176 -181 236c54 101 105 162 202 274c41 -21 83 -48 123 -84z" />
    <glyph glyph-name="registered" unicode="&#xae;" horiz-adv-x="792" 
d="M23 346c0 208 167 375 375 375c210 0 376 -167 376 -375c0 -209 -167 -376 -376 -376c-208 0 -375 166 -375 376zM86 346c0 -177 137 -313 312 -313c176 0 313 137 313 313c0 175 -136 312 -313 312c-175 0 -312 -137 -312 -312zM399 195v-52c-54 -5 -108 -5 -163 -1
c-4 42 -7 84 -7 133c0 106 9 204 25 294c40 4 116 8 189 -14c116 -34 146 -109 146 -168c0 -41 -15 -85 -41 -120c19 -25 36 -51 50 -78c-58 -42 -102 -67 -135 -84c-30 48 -44 68 -64 90zM399 300c0 -8 1 -16 1 -24s1 -16 1 -24c28 3 44 21 44 37c0 8 -8 16 -24 16
c-3 0 -7 -1 -10 -2z" />
    <glyph glyph-name="degree" unicode="&#xb0;" horiz-adv-x="428" 
d="M27 515c0 88 76 181 181 181c87 0 185 -71 185 -182c0 -91 -70 -180 -183 -180c-103 0 -183 85 -183 181zM199 463c0 -27 23 -50 50 -50s50 23 50 50s-23 50 -50 50s-50 -23 -50 -50z" />
    <glyph glyph-name="plusminus" unicode="&#xb1;" horiz-adv-x="524" 
d="M207 581c48 4 93 5 136 4c1 -61 0 -94 -2 -172h81c29 1 45 1 91 1c2 -48 1 -62 1 -143c-43 -1 -59 0 -91 1c-30 1 -45 1 -85 1c2 -81 5 -89 1 -139c-26 -5 -68 -10 -138 -3c-2 31 -4 63 -3 140c-89 -2 -108 -1 -169 -7c-4 69 -3 110 -2 140c63 6 104 7 174 9
c-1 83 0 116 6 168zM24 90c47 0 95 0 142 1c46 1 92 2 138 2c92 0 79 -3 205 -2c3 -46 2 -58 2 -132c-125 4 -183 3 -287 3h-200c-4 52 -4 88 0 128z" />
    <glyph glyph-name="paragraph" unicode="&#xb6;" horiz-adv-x="748" 
d="M710 833c6 -245 9 -379 9 -488c0 -124 -3 -290 -9 -432c-72 -2 -129 6 -166 13c6 162 10 281 10 414c0 98 -3 199 -4 230c-21 -1 -44 0 -68 2c0 -98 2 -141 2 -216c0 -176 -8 -332 -17 -437c-55 -4 -107 -2 -157 5c6 235 8 256 8 353c-83 14 -167 62 -218 127
c-86 111 -59 230 0 300c98 116 302 135 500 135c48 0 78 -2 110 -6z" />
    <glyph glyph-name="periodcentered" unicode="&#xb7;" horiz-adv-x="585" 
d="M166 487c75 9 133 13 262 17c1 -24 2 -48 2 -72v-178c-39 -7 -77 -11 -116 -11c-36 0 -117 6 -148 9c-1 91 -2 120 -2 147c0 29 1 59 2 88z" />
    <glyph glyph-name="periodcentered" unicode="&#x2219;" horiz-adv-x="585" 
d="M166 487c75 9 133 13 262 17c1 -24 2 -48 2 -72v-178c-39 -7 -77 -11 -116 -11c-36 0 -117 6 -148 9c-1 91 -2 120 -2 147c0 29 1 59 2 88z" />
    <glyph glyph-name="guillemotright" unicode="&#xbb;" horiz-adv-x="619" 
d="M13 459c37 35 77 65 120 91c111 -92 173 -181 208 -242c-100 -115 -147 -197 -173 -244c-47 18 -89 40 -126 66c35 57 75 117 119 180c-40 51 -89 101 -148 149zM278 500c40 36 82 63 123 84c97 -112 148 -173 202 -274c-61 -60 -105 -116 -181 -236
c-46 20 -90 43 -133 69c35 56 77 112 129 167c-45 65 -92 129 -140 190z" />
    <glyph glyph-name="circumflex" unicode="&#x2c6;" horiz-adv-x="477" 
d="M277 816c-30 -22 -62 -48 -93 -78c-26 26 -46 54 -61 81c87 73 145 100 174 112c13 -17 49 -60 125 -110c-6 -31 -17 -61 -34 -92c-45 25 -81 55 -111 87z" />
    <glyph glyph-name="tilde" unicode="&#x2dc;" horiz-adv-x="470" 
d="M117 864l53 16c39 12 58 5 98 -10c38 -14 72 -21 130 23c2 -10 4 -19 5 -29c2 -14 4 -27 4 -41c0 -17 -2 -35 -12 -49s-28 -23 -45 -23c-20 0 -45 10 -83 25c-33 12 -64 20 -95 -2l-34 -24c-6 41 -13 79 -21 114z" />
    <glyph glyph-name="afii10023" unicode="&#x401;" horiz-adv-x="584" 
d="M319 241h71c55 0 96 2 148 10c-2 -31 -6 -118 11 -248c-83 -11 -154 -14 -251 -14c-82 0 -159 3 -229 8c-3 21 -28 215 -28 396c0 135 14 232 24 292c76 10 126 11 200 11c106 0 175 -1 280 -16c-8 -60 -10 -140 -10 -179v-41c-14 1 -61 4 -96 4c-48 0 -95 -5 -120 -8
c1 -14 4 -74 4 -103c0 -30 -3 -85 -4 -112zM330 370c52 32 107 56 165 73c10 -22 23 -53 36 -103c-57 -30 -114 -53 -167 -70c-13 30 -16 43 -34 100zM117 852c65 11 103 26 125 36c10 -23 23 -61 29 -131c-57 -23 -105 -30 -135 -32c-1 41 -7 73 -19 127zM330 852
c65 11 103 26 125 36c10 -23 23 -61 29 -131c-57 -23 -105 -30 -135 -32c-1 41 -7 73 -19 127z" />
    <glyph glyph-name="afii10051" unicode="&#x402;" horiz-adv-x="678" 
d="M26 683c83 7 134 9 206 9c118 0 173 0 249 -11c6 -47 11 -109 6 -181c-84 -14 -144 -13 -178 -11c1 -19 3 -40 3 -62c35 24 68 31 108 31c137 0 273 -90 273 -341c0 -121 -37 -229 -134 -363c-101 86 -149 140 -186 191c15 30 24 64 24 106c0 41 -6 95 -48 95
c-51 0 -51 -90 -51 -142c-48 -11 -106 -16 -180 0c-3 59 -6 129 -6 210c0 91 3 180 10 272c-38 0 -77 2 -117 8c-6 95 8 151 21 189z" />
    <glyph glyph-name="afii10052" unicode="&#x403;" horiz-adv-x="535" 
d="M503 436c-111 -1 -104 3 -185 -1c-4 -37 -4 -60 -4 -101c0 -114 3 -175 19 -333c-88 -8 -178 -9 -275 2c-12 119 -17 236 -17 338c0 125 8 235 29 352c25 1 117 6 175 6c54 0 165 -3 272 -14c-12 -85 -14 -139 -14 -184v-65zM160 862c128 36 161 39 239 76
c6 -39 13 -79 23 -118c-129 -44 -212 -53 -264 -55c-1 13 -1 27 -1 40c0 19 1 38 3 57z" />
    <glyph glyph-name="afii10053" unicode="&#x404;" 
d="M561 97c-74 -92 -145 -146 -192 -177c-213 92 -337 265 -337 444c0 144 87 317 263 394c146 -56 239 -170 256 -192c-87 -33 -213 -110 -213 -238c0 -67 32 -175 223 -231zM360 373c27 17 72 43 139 63c14 -34 26 -68 40 -133c-33 -16 -70 -31 -149 -54
c-4 22 -11 55 -30 124z" />
    <glyph glyph-name="afii10054" unicode="&#x405;" horiz-adv-x="524" 
d="M367 710c44 -53 95 -120 172 -247c-76 -51 -105 -108 -131 -194c-26 -85 -63 -216 -254 -314c-91 111 -133 179 -167 248c102 63 132 147 175 252c40 100 88 189 205 255z" />
    <glyph glyph-name="afii10055" unicode="&#x406;" horiz-adv-x="388" 
d="M80 691c78 9 165 11 282 -7c-16 -102 -35 -281 -35 -379c0 -89 14 -221 27 -308c-40 -7 -142 -21 -278 -7c-15 115 -27 213 -27 327c0 59 1 199 31 374z" />
    <glyph glyph-name="afii10056" unicode="&#x407;" horiz-adv-x="388" 
d="M79 691c78 9 165 11 282 -7c-16 -102 -35 -281 -35 -379c0 -89 14 -221 27 -308c-40 -7 -142 -21 -278 -7c-15 115 -27 213 -27 327c0 59 1 199 31 374zM45 850c65 11 103 26 125 36c10 -23 23 -61 29 -131c-57 -23 -105 -30 -135 -32c-1 41 -7 73 -19 127zM258 850
c65 11 103 26 125 36c10 -23 23 -61 29 -131c-57 -23 -105 -30 -135 -32c-1 41 -7 73 -19 127z" />
    <glyph glyph-name="afii10057" unicode="&#x408;" horiz-adv-x="400" 
d="M63 693c85 7 179 7 280 -3c13 -75 20 -154 20 -249c0 -280 -45 -486 -180 -685c-101 86 -149 140 -186 191c67 129 89 254 89 454c0 122 -5 197 -23 292z" />
    <glyph glyph-name="afii10058" unicode="&#x409;" horiz-adv-x="1022" 
d="M398 280c-97 -121 -156 -236 -192 -324c-48 34 -133 102 -217 228c98 147 247 346 475 565c82 -95 149 -191 204 -284c24 7 46 10 66 10c78 0 163 -31 211 -80c76 -77 90 -215 30 -316c-61 -103 -180 -133 -255 -133c-28 0 -125 8 -201 68c-77 166 -61 162 -121 266z
M715 169c-5 -30 -4 -63 5 -97c28 -4 53 16 53 48c0 30 -26 51 -58 49z" />
    <glyph glyph-name="afii10059" unicode="&#x40a;" horiz-adv-x="1005" 
d="M740 686c-11 -55 -23 -124 -33 -217c90 11 175 -27 221 -74c76 -78 90 -215 30 -316c-61 -104 -180 -133 -255 -133c-63 0 -165 22 -260 115c-8 69 -14 141 -17 245c-29 -1 -59 -1 -89 0c4 -121 13 -221 22 -297c-97 -14 -191 -16 -274 -12c-4 25 -37 227 -37 462
c0 91 5 166 14 237c67 7 131 9 192 9c48 0 73 -2 97 -6c-14 -85 -22 -128 -21 -205c30 2 63 3 97 2c1 55 11 136 31 197c34 5 72 8 120 8c57 0 105 -4 162 -15zM706 169c-5 -31 -4 -63 5 -97c33 -4 53 21 53 48c0 24 -21 51 -58 49z" />
    <glyph glyph-name="afii10060" unicode="&#x40b;" horiz-adv-x="716" 
d="M26 683c65 5 138 10 204 10c104 0 188 -5 251 -12c11 -90 8 -146 6 -181c-30 -5 -75 -11 -178 -11c1 -19 3 -40 3 -62c23 15 60 31 116 31c174 0 318 -172 251 -463c-61 -8 -112 -8 -144 -8c-11 0 -68 1 -141 11c19 127 -20 148 -39 148s-65 -6 -60 -150
c-90 -6 -147 2 -177 8c-3 60 -6 129 -6 210c0 93 3 179 10 269c-40 5 -79 8 -117 11c-6 95 8 151 21 189z" />
    <glyph glyph-name="afii10061" unicode="&#x40c;" horiz-adv-x="670" 
d="M479 704c51 -25 116 -67 202 -159c-67 -146 -118 -235 -162 -305c34 -42 60 -69 120 -130c-85 -94 -153 -146 -204 -179c-68 61 -101 113 -121 149l-3 -1v-87c-90 -4 -175 -4 -254 0c-7 71 -16 178 -16 305c0 141 9 263 36 401c42 2 124 3 270 -15
c-26 -125 -36 -219 -40 -277l-2 -29l2 1c32 53 85 144 172 326zM255 862c128 36 161 39 239 76c6 -39 13 -79 23 -118c-129 -44 -212 -53 -264 -55c-1 13 -1 27 -1 40c0 19 1 38 3 57z" />
    <glyph glyph-name="afii10062" unicode="&#x40e;" horiz-adv-x="750" 
d="M5 640c51 29 117 62 235 103c34 -63 80 -145 143 -237c44 69 75 129 130 243c122 -60 183 -96 235 -134c-86 -195 -292 -511 -446 -704c-95 53 -171 109 -229 157c77 93 120 158 148 206c-117 164 -176 279 -216 366zM437 980c69 -44 102 -94 119 -134
c-51 -77 -127 -85 -188 -85c-46 0 -103 8 -151 63c-11 12 -20 26 -28 41c42 8 101 25 178 68c31 18 51 32 70 47z" />
    <glyph glyph-name="afii10145" unicode="&#x40f;" horiz-adv-x="727" 
d="M414 685c94 11 175 9 254 -2c7 -53 17 -140 17 -297c0 -123 -7 -246 -29 -382c-53 -5 -108 -8 -165 -11c0 -61 4 -128 11 -199c-99 -15 -159 -18 -243 0c-14 147 -3 108 -15 197c-60 -3 -122 -3 -186 2c-6 87 -13 217 -13 394c0 112 2 201 9 308c129 2 213 -4 287 -13
c4 -105 6 -159 6 -207c0 -74 -4 -171 -8 -240c29 -1 59 -2 89 -2c3 36 5 69 5 117c0 186 -17 317 -19 335z" />
    <glyph glyph-name="afii10017" unicode="&#x410;" horiz-adv-x="773" 
d="M464 749c78 -92 191 -245 312 -554c-81 -112 -191 -194 -262 -239c-34 160 -87 270 -116 324c-97 -121 -156 -236 -192 -324c-48 34 -133 102 -217 228c184 265 339 436 475 565zM302 119c65 11 103 26 125 36c10 -23 23 -61 29 -131c-57 -23 -105 -30 -135 -32
c-1 41 -7 73 -19 127z" />
    <glyph glyph-name="afii10018" unicode="&#x411;" horiz-adv-x="605" 
d="M595 685c-2 -48 -4 -69 -9 -115s-7 -66 -11 -139c-68 7 -176 10 -245 6l1 -54c131 25 256 -70 256 -206c0 -130 -106 -236 -272 -236c-116 0 -211 70 -259 115c-10 97 -11 169 -11 269c0 110 2 191 22 368c68 4 134 7 221 7c119 0 204 -4 307 -15zM328 167
c-2 -33 -1 -65 2 -96c11 0 20 3 28 9c15 12 18 29 18 41c0 5 0 11 -2 16c-3 10 -14 32 -46 30z" />
    <glyph glyph-name="afii10019" unicode="&#x412;" horiz-adv-x="660" 
d="M60 610c57 50 146 104 283 104c196 0 307 -137 307 -290c0 -67 -20 -176 -135 -246c22 -25 25 -53 25 -70c0 -74 -78 -167 -217 -167c-122 0 -220 73 -265 115c-9 76 -13 137 -13 227c0 120 2 212 15 327zM322 334c-2 -17 -3 -33 -3 -50c0 -13 1 -27 3 -40
c5 -2 9 -3 14 -3c16 0 44 10 44 46c0 27 -16 45 -35 48c-5 1 -10 0 -15 0c-3 0 -5 -1 -8 -1zM323 141v-63c26 -6 46 11 46 35c0 27 -19 31 -31 31c-5 0 -10 -1 -15 -3z" />
    <glyph glyph-name="afii10020" unicode="&#x413;" horiz-adv-x="535" 
d="M503 436c-111 -1 -104 3 -185 -1c-4 -37 -4 -60 -4 -101c0 -114 3 -175 19 -333c-88 -8 -178 -9 -275 2c-12 119 -17 236 -17 338c0 125 8 235 29 352c25 1 117 6 175 6c54 0 165 -3 272 -14c-12 -85 -14 -139 -14 -184v-65z" />
    <glyph glyph-name="afii10021" unicode="&#x414;" horiz-adv-x="885" 
d="M684 690v-121c0 -35 2 -71 2 -106c0 -73 -3 -59 -2 -160c102 18 99 18 157 27c3 -45 9 -140 9 -212c0 -127 -13 -219 -27 -285l-320 12c15 133 17 169 17 224c-24 -3 -41 -3 -72 -3c-42 0 -70 2 -110 7c-4 -105 -5 -164 -3 -223l-325 8v246c0 103 3 163 9 238h147
c136 166 194 232 331 364c95 -9 113 -12 187 -16z" />
    <glyph glyph-name="afii10022" unicode="&#x415;" horiz-adv-x="584" 
d="M319 241h71c55 0 96 2 148 10c-2 -31 -6 -118 11 -248c-83 -11 -154 -14 -251 -14c-82 0 -159 3 -229 8c-3 21 -28 215 -28 396c0 135 14 232 24 292c76 10 126 11 200 11c106 0 175 -1 280 -16c-8 -60 -10 -140 -10 -179v-41c-14 1 -61 4 -96 4c-48 0 -95 -5 -120 -8
c1 -14 4 -74 4 -103c0 -30 -3 -85 -4 -112zM330 370c52 32 107 56 165 73c10 -22 23 -53 36 -103c-57 -30 -114 -53 -167 -70c-13 30 -16 43 -34 100z" />
    <glyph glyph-name="afii10024" unicode="&#x416;" horiz-adv-x="1035" 
d="M676 -8c-95 -9 -116 -4 -254 0v100l-3 1c-53 -87 -102 -136 -132 -162c-51 33 -119 85 -204 179c60 61 86 88 120 130c-38 60 -99 162 -162 305c86 92 151 134 202 159c55 -115 97 -193 171 -328h2c-14 155 11 266 26 322c48 2 128 3 270 -15c-25 -125 -33 -210 -40 -277
l-3 -29l2 -1c42 67 80 134 173 328c51 -25 116 -67 202 -159c-65 -145 -125 -245 -162 -305c34 -42 60 -69 120 -130c-85 -94 -153 -146 -204 -179c-67 58 -103 116 -122 152l-2 1v-92z" />
    <glyph glyph-name="afii10025" unicode="&#x417;" horiz-adv-x="550" 
d="M305 758c121 -39 197 -145 197 -258c0 -31 -4 -97 -67 -148c75 -53 83 -130 83 -173c0 -153 -102 -227 -181 -259c-61 17 -182 61 -302 186c63 12 161 53 161 143c0 23 -11 70 -73 107l81 38c12 76 -28 151 -123 172c63 87 133 149 224 192z" />
    <glyph glyph-name="afii10026" unicode="&#x418;" horiz-adv-x="713" 
d="M77 690c94 16 175 15 242 8c-7 -84 -9 -101 -10 -146c145 66 253 134 372 215c-20 -240 -23 -467 -19 -771c-89 -6 -173 -5 -252 1c3 51 5 98 6 143c-163 -127 -248 -177 -356 -220c-6 83 -10 177 -10 283c0 282 16 413 27 487z" />
    <glyph glyph-name="afii10027" unicode="&#x419;" horiz-adv-x="713" 
d="M459 940c69 -44 102 -94 119 -134c-50 -76 -130 -85 -181 -85s-136 8 -186 104c66 13 159 43 248 115zM77 690c109 16 174 16 242 8c-7 -84 -9 -101 -10 -146c145 66 253 134 372 215c-20 -240 -23 -467 -19 -771c-79 -5 -163 -6 -252 1c3 51 5 98 6 143
c-163 -127 -248 -177 -356 -220c-6 83 -10 177 -10 283c0 282 16 413 27 487z" />
    <glyph glyph-name="afii10028" unicode="&#x41a;" horiz-adv-x="670" 
d="M479 704c51 -25 116 -67 202 -159c-67 -146 -118 -235 -162 -305c34 -42 60 -69 120 -130c-85 -94 -153 -146 -204 -179c-68 61 -101 113 -121 149l-3 -1v-87c-90 -4 -175 -4 -254 0c-7 71 -16 178 -16 305c0 141 9 263 36 401c42 2 124 3 270 -15
c-26 -125 -36 -219 -40 -277l-2 -29l2 1c32 53 85 144 172 326z" />
    <glyph glyph-name="afii10029" unicode="&#x41b;" horiz-adv-x="773" 
d="M464 749c94 -112 206 -279 312 -554c-81 -112 -191 -194 -262 -239c-34 160 -87 270 -116 324c-97 -121 -156 -236 -192 -324c-48 34 -133 102 -217 228c98 147 247 346 475 565z" />
    <glyph glyph-name="afii10030" unicode="&#x41c;" horiz-adv-x="898" 
d="M392 765c20 -31 41 -66 62 -105c21 36 47 74 78 113c155 -170 282 -366 377 -583c-46 -61 -106 -126 -233 -225c-42 122 -76 191 -99 233c-53 -85 -106 -142 -141 -177c-38 39 -90 102 -122 178c-38 -55 -84 -130 -130 -227c-110 101 -159 164 -198 232
c161 298 292 454 406 561z" />
    <glyph glyph-name="afii10031" unicode="&#x41d;" horiz-adv-x="739" 
d="M62 696c45 4 108 9 187 9c51 0 77 -2 102 -6c-14 -85 -22 -128 -21 -205c30 2 63 3 97 2c1 55 11 136 31 197c60 5 92 8 120 8c53 0 101 -4 136 -10c-22 -152 -25 -198 -25 -313c0 -119 4 -211 27 -378c-36 -2 -100 -5 -150 -5c-48 0 -80 3 -113 8
c-20 142 -25 241 -27 303c-29 -1 -59 -1 -89 0c4 -121 13 -221 22 -297c-61 -9 -156 -18 -274 -12c-22 134 -37 303 -37 446c0 90 4 170 14 253z" />
    <glyph glyph-name="afii10032" unicode="&#x41e;" horiz-adv-x="793" 
d="M23 345c0 209 167 376 376 376s376 -167 376 -376s-167 -376 -376 -376s-376 167 -376 376zM428 208c0 -44 35 -78 77 -78c44 0 78 34 78 78c0 42 -34 77 -78 77c-43 0 -77 -34 -77 -77z" />
    <glyph glyph-name="afii10033" unicode="&#x41f;" horiz-adv-x="720" 
d="M316 -3c-96 -11 -177 -9 -254 2c-7 53 -17 140 -17 297c0 123 7 246 29 382c88 7 233 17 373 17c147 0 189 -3 225 -6c5 -71 13 -221 13 -427c0 -93 -2 -174 -9 -275c-129 -2 -213 4 -287 13c-4 107 -6 135 -6 179c0 81 3 191 8 268c-29 1 -59 2 -89 2
c-3 -36 -5 -67 -5 -107c0 -96 6 -239 19 -345z" />
    <glyph glyph-name="afii10034" unicode="&#x420;" horiz-adv-x="646" 
d="M79 695c34 5 71 8 121 8c120 0 272 -22 367 -135c56 -66 97 -174 46 -290c-45 -103 -154 -183 -287 -193c3 -27 6 -56 10 -88c-149 -15 -256 2 -279 6c-10 95 -18 207 -18 341c0 111 3 218 40 351zM318 285c-1 -22 -2 -45 -2 -67c0 -18 1 -37 2 -55c39 15 44 46 44 63
c0 42 -32 55 -44 59z" />
    <glyph glyph-name="afii10035" unicode="&#x421;" horiz-adv-x="635" 
d="M574 94c10 -31 11 -52 11 -78v-26c-52 -15 -109 -25 -183 -25c-246 0 -377 147 -377 329c0 169 129 407 445 407c48 0 92 -4 131 -11c5 -56 5 -96 5 -170c0 -106 -2 -177 -30 -294c-31 6 -45 10 -60 10c-45 0 -80 -20 -80 -58c0 -36 32 -87 138 -84z" />
    <glyph glyph-name="afii10036" unicode="&#x422;" 
d="M26 683c113 10 200 10 224 10c96 0 217 -8 274 -12c14 -122 11 -192 6 -241c-36 -6 -76 -10 -118 -11c3 -45 3 -90 3 -153c0 -108 -7 -194 -18 -285c-60 -2 -150 -2 -259 13c-2 31 -6 101 -6 177c0 93 3 168 10 242c-49 4 -94 7 -137 11c-5 112 7 191 21 249z" />
    <glyph glyph-name="afii10037" unicode="&#x423;" horiz-adv-x="750" 
d="M5 640c51 29 117 62 235 103c34 -63 80 -145 143 -237c44 69 75 129 130 243c122 -60 183 -96 235 -134c-86 -195 -292 -511 -446 -704c-95 53 -171 109 -229 157c77 93 120 158 148 206c-117 164 -176 279 -216 366z" />
    <glyph glyph-name="afii10038" unicode="&#x424;" horiz-adv-x="883" 
d="M614 738l-26 -102c167 -24 273 -147 273 -289c0 -66 -28 -140 -67 -189c-7 -9 -88 -108 -221 -105c4 -36 10 -70 15 -102c-29 -8 -56 -12 -101 -12c-87 0 -181 13 -196 15v89c-100 13 -190 65 -235 144c-64 112 -30 254 36 333c45 54 118 95 200 106v97
c50 12 113 23 200 23c51 0 86 -2 122 -8zM436 239c0 -44 35 -78 77 -78c44 0 78 34 78 78c0 42 -34 77 -78 77c-43 0 -77 -34 -77 -77z" />
    <glyph glyph-name="afii10039" unicode="&#x425;" horiz-adv-x="775" 
d="M30 515c49 57 123 136 227 223c57 -48 111 -96 160 -145c50 45 103 81 157 111c51 -50 117 -123 182 -228c-47 -32 -89 -68 -126 -106c56 -76 99 -140 129 -187c-57 -72 -114 -127 -249 -229c-59 102 -93 151 -126 194c-89 -84 -137 -157 -162 -201
c-121 91 -165 119 -239 193c44 68 92 131 192 240c-47 53 -97 98 -145 135z" />
    <glyph glyph-name="afii10040" unicode="&#x426;" horiz-adv-x="781" 
d="M345 274c179 3 273 -14 421 -58c3 -24 5 -52 5 -88c0 -92 -17 -229 -39 -333c-65 -2 -123 4 -298 35c18 72 26 126 31 159c-75 14 -178 28 -400 29c-19 107 -28 255 -28 381c0 63 3 164 19 291c95 11 211 12 312 -6c-18 -135 -27 -266 -23 -410zM479 720
c66 -12 113 -28 200 -61c-27 -249 -33 -299 -48 -376c-49 3 -125 13 -221 58c-11 107 5 221 69 379z" />
    <glyph glyph-name="afii10041" unicode="&#x427;" horiz-adv-x="705" 
d="M403 699c29 6 58 10 102 10c67 0 126 -7 177 -17c-14 -98 -34 -284 -34 -379c0 -86 14 -225 26 -308c-51 -10 -86 -12 -165 -12c-44 0 -71 1 -113 5c-18 77 -21 141 -20 184c-67 -56 -165 -52 -223 -24c-60 29 -116 92 -116 219c0 121 41 224 89 320c11 2 65 14 114 14
c17 0 44 -2 106 -10c-44 -114 -49 -167 -49 -204c0 -17 -1 -27 3 -43c24 2 46 3 67 4c7 127 25 203 36 241z" />
    <glyph glyph-name="afii10042" unicode="&#x428;" horiz-adv-x="923" 
d="M288 665c-24 -94 -44 -291 -44 -418c133 12 205 16 342 16c-8 77 -11 157 -11 257c0 77 4 133 9 183c49 2 73 4 100 4c36 0 93 -6 190 -34c6 -37 14 -123 14 -301c0 -101 -10 -280 -24 -398c-238 26 -555 42 -800 37c-18 124 -27 224 -27 331c0 118 8 213 27 310
c66 11 135 17 224 13zM383 753c41 -9 98 -28 177 -80c-19 -182 -31 -280 -55 -392c-53 3 -123 15 -194 49c-8 61 -8 95 -8 104c0 95 19 212 80 319z" />
    <glyph glyph-name="afii10043" unicode="&#x429;" horiz-adv-x="1044" 
d="M66 19c-9 42 -29 152 -29 319c0 56 2 186 28 350c70 17 127 20 175 20c43 0 86 -3 120 -6c-24 -124 -32 -300 -26 -415c23 3 46 4 69 2c-3 61 -3 100 -3 113c0 72 6 217 34 297c32 8 55 10 92 10c77 0 129 -7 168 -14c-40 -148 -63 -260 -59 -418c125 -1 287 -22 394 -60
c5 -38 5 -71 5 -115c0 -54 -8 -151 -39 -307c-62 -3 -122 1 -300 31c20 82 28 131 31 158c-167 26 -347 38 -660 35zM775 737c83 -19 138 -51 170 -73l-4 -37c-5 -43 -26 -236 -41 -344c-89 5 -158 32 -199 52c-18 132 17 284 74 402z" />
    <glyph glyph-name="afii10044" unicode="&#x42a;" horiz-adv-x="752" 
d="M442 392c-11 -30 -15 -63 -11 -97c21 -6 40 2 50 14c6 8 10 18 10 28c0 9 0 18 -3 26c-5 11 -17 28 -46 29zM524 637c-37 -78 -50 -105 -62 -159c83 -4 164 -33 213 -83c76 -77 90 -215 30 -316c-62 -104 -181 -133 -250 -133c-77 0 -197 34 -278 133
c-7 181 18 284 34 338c-21 8 -40 11 -62 11c-38 0 -78 -8 -113 -22c-22 100 -31 194 -10 303c160 14 347 -11 498 -72z" />
    <glyph glyph-name="afii10045" unicode="&#x42b;" horiz-adv-x="986" 
d="M667 687c78 9 165 11 282 -7c-18 -110 -35 -275 -35 -379c0 -92 14 -223 27 -308c-40 -7 -142 -21 -278 -7c-17 129 -27 199 -27 332c0 131 11 252 31 369zM352 686c-11 -55 -23 -124 -33 -217c165 20 288 -96 288 -245c0 -197 -161 -278 -287 -278
c-122 0 -220 72 -265 115c-15 149 -18 225 -18 280c0 168 20 287 33 352c31 4 61 7 94 7c71 0 148 -8 188 -14zM310 169c-3 -16 -3 -33 -3 -49s4 -32 8 -48c30 -3 52 18 52 49c0 30 -25 52 -57 48z" />
    <glyph glyph-name="afii10046" unicode="&#x42c;" horiz-adv-x="615" 
d="M350 686c-11 -55 -23 -124 -33 -217c74 10 164 -16 221 -74c76 -78 90 -215 30 -316c-61 -104 -180 -133 -255 -133c-117 0 -212 70 -260 115c-11 114 -16 171 -16 278c0 181 19 295 31 354c30 4 62 7 99 7c69 0 143 -8 183 -14zM308 169c-3 -15 -3 -31 -3 -46
c0 -17 3 -34 8 -51c28 -4 53 16 53 48c0 30 -26 51 -58 49z" />
    <glyph glyph-name="afii10047" unicode="&#x42d;" 
d="M-25 97c191 56 223 164 223 231c0 128 -126 205 -213 238c17 22 110 136 256 192c176 -77 263 -250 263 -394c0 -179 -124 -352 -337 -444c-47 31 -118 85 -192 177zM176 373c-19 -69 -26 -102 -30 -124c-79 23 -116 38 -149 54c14 65 26 99 40 133
c67 -20 112 -46 139 -63z" />
    <glyph glyph-name="afii10048" unicode="&#x42e;" horiz-adv-x="967" 
d="M396 653c-13 -39 -19 -70 -22 -85c-3 -19 -6 -37 -7 -56l4 -1c27 76 87 128 150 153c88 35 196 20 270 -27c88 -57 150 -169 150 -309c0 -169 -91 -277 -182 -324c-85 -44 -189 -45 -265 -18c-137 48 -181 171 -195 221h-4c0 -45 2 -117 8 -208c-35 -4 -81 -7 -115 -7
c-33 0 -80 4 -110 7c-4 20 -29 160 -29 354c0 157 17 256 30 320c91 15 225 12 317 -20zM420 403c0 -44 35 -78 77 -78c44 0 78 34 78 78c0 42 -34 77 -78 77c-43 0 -77 -34 -77 -77z" />
    <glyph glyph-name="afii10049" unicode="&#x42f;" horiz-adv-x="664" 
d="M374 3v85c-31 -33 -60 -71 -105 -146c-61 31 -117 65 -221 137c23 46 51 88 82 127c-43 57 -67 128 -67 192c0 75 32 215 238 277c113 34 241 30 310 24c36 -205 40 -361 40 -499c0 -77 -3 -129 -12 -199c-83 -7 -172 -7 -265 2zM372 271c-20 3 -44 -1 -57 -9
c-8 -5 -16 -12 -16 -21s2 -18 7 -25c13 -20 44 -32 65 -35z" />
    <glyph glyph-name="afii10065" unicode="&#x430;" horiz-adv-x="773" 
d="M464 749c78 -92 191 -245 312 -554c-81 -112 -191 -194 -262 -239c-34 160 -87 270 -116 324c-97 -121 -156 -236 -192 -324c-48 34 -133 102 -217 228c184 265 339 436 475 565zM302 119c65 11 103 26 125 36c10 -23 23 -61 29 -131c-57 -23 -105 -30 -135 -32
c-1 41 -7 73 -19 127z" />
    <glyph glyph-name="afii10066" unicode="&#x431;" horiz-adv-x="605" 
d="M595 685c-2 -48 -4 -69 -9 -115s-7 -66 -11 -139c-68 7 -176 10 -245 6l1 -54c131 25 256 -70 256 -206c0 -130 -106 -236 -272 -236c-116 0 -211 70 -259 115c-10 97 -11 169 -11 269c0 110 2 191 22 368c68 4 134 7 221 7c119 0 204 -4 307 -15zM328 167
c-2 -33 -1 -65 2 -96c11 0 20 3 28 9c15 12 18 29 18 41c0 5 0 11 -2 16c-3 10 -14 32 -46 30z" />
    <glyph glyph-name="afii10067" unicode="&#x432;" horiz-adv-x="660" 
d="M60 610c57 50 146 104 283 104c196 0 307 -137 307 -290c0 -67 -20 -176 -135 -246c22 -25 25 -53 25 -70c0 -74 -78 -167 -217 -167c-122 0 -220 73 -265 115c-9 76 -13 137 -13 227c0 120 2 212 15 327zM322 334c-2 -17 -3 -33 -3 -50c0 -13 1 -27 3 -40
c5 -2 9 -3 14 -3c16 0 44 10 44 46c0 27 -16 48 -35 48c-8 0 -20 -1 -23 -1zM323 141v-63c26 -6 46 11 46 35c0 27 -19 31 -31 31c-5 0 -10 -1 -15 -3z" />
    <glyph glyph-name="afii10068" unicode="&#x433;" horiz-adv-x="535" 
d="M503 436c-111 -1 -104 3 -185 -1c-4 -37 -4 -60 -4 -101c0 -114 3 -175 19 -333c-88 -8 -178 -9 -275 2c-12 119 -17 236 -17 338c0 125 8 235 29 352c25 1 117 6 175 6c54 0 165 -3 272 -14c-12 -85 -14 -139 -14 -184v-65z" />
    <glyph glyph-name="afii10069" unicode="&#x434;" horiz-adv-x="885" 
d="M684 690v-121c0 -35 2 -71 2 -106c0 -73 -3 -59 -2 -160c102 18 99 18 157 27c3 -45 9 -140 9 -212c0 -127 -13 -219 -27 -285l-320 12c15 133 17 169 17 224c-24 -3 -41 -3 -72 -3c-42 0 -70 2 -110 7c-4 -105 -5 -164 -3 -223l-325 8v246c0 103 3 163 9 238h147
c136 166 194 232 331 364c95 -9 113 -12 187 -16z" />
    <glyph glyph-name="afii10070" unicode="&#x435;" horiz-adv-x="584" 
d="M319 241h71c55 0 96 2 148 10c-2 -31 -6 -118 11 -248c-83 -11 -154 -14 -251 -14c-82 0 -159 3 -229 8c-16 123 -28 274 -28 393c0 137 14 235 24 295c76 10 126 11 200 11c106 0 175 -1 280 -16c-8 -60 -10 -140 -10 -179v-41c-14 1 -61 4 -96 4c-48 0 -95 -5 -120 -8
c1 -27 4 -79 4 -107c0 -11 0 -39 -4 -108zM330 370c52 32 107 56 165 73c10 -22 23 -53 36 -103c-57 -30 -114 -53 -167 -70c-13 30 -16 43 -34 100z" />
    <glyph glyph-name="afii10072" unicode="&#x436;" horiz-adv-x="1035" 
d="M676 -8c-95 -9 -116 -4 -254 0v100l-3 1c-53 -87 -102 -136 -132 -162c-51 33 -119 85 -204 179c60 61 86 88 120 130c-38 60 -99 162 -162 305c86 92 151 134 202 159c55 -115 97 -193 171 -328h2c-14 155 11 266 26 322c48 2 128 3 270 -15c-25 -125 -33 -210 -40 -277
l-3 -29l2 -1c42 67 80 134 173 328c51 -25 116 -67 202 -159c-65 -145 -125 -245 -162 -305c34 -42 60 -69 120 -130c-85 -94 -153 -146 -204 -179c-67 58 -103 116 -122 152l-2 1v-92z" />
    <glyph glyph-name="afii10073" unicode="&#x437;" horiz-adv-x="550" 
d="M305 758c121 -39 197 -145 197 -258c0 -31 -4 -97 -67 -148c75 -53 83 -130 83 -173c0 -153 -102 -227 -181 -259c-61 17 -182 61 -302 186c63 12 161 53 161 143c0 23 -11 70 -73 107l81 38c12 76 -28 151 -123 172c63 87 133 149 224 192z" />
    <glyph glyph-name="afii10074" unicode="&#x438;" horiz-adv-x="713" 
d="M77 690c94 16 175 15 242 8c-7 -84 -9 -101 -10 -146c145 66 253 134 372 215c-20 -240 -23 -467 -19 -771c-89 -6 -173 -5 -252 1c3 51 5 98 6 143c-163 -127 -248 -177 -356 -220c-6 83 -10 177 -10 283c0 282 16 413 27 487z" />
    <glyph glyph-name="afii10075" unicode="&#x439;" horiz-adv-x="713" 
d="M459 940c69 -44 102 -94 119 -134c-52 -78 -127 -85 -182 -85c-49 0 -135 8 -185 104c88 16 189 67 248 115zM77 690c94 16 175 15 242 8c-7 -84 -9 -101 -10 -146c145 66 253 134 372 215c-20 -232 -22 -551 -19 -771c-89 -6 -173 -5 -252 1c3 51 5 98 6 143
c-163 -127 -248 -177 -356 -220c-6 82 -10 189 -10 318c0 245 13 364 27 452z" />
    <glyph glyph-name="afii10076" unicode="&#x43a;" horiz-adv-x="670" 
d="M479 704c51 -25 116 -67 202 -159c-67 -146 -118 -235 -162 -305c34 -42 60 -69 120 -130c-85 -94 -153 -146 -204 -179c-68 61 -101 113 -121 149l-3 -1v-87c-90 -4 -175 -4 -254 0c-9 88 -16 184 -16 281c0 163 10 291 36 425c42 2 124 3 270 -15
c-26 -125 -36 -219 -40 -277l-2 -29l2 1c32 53 85 144 172 326z" />
    <glyph glyph-name="afii10077" unicode="&#x43b;" horiz-adv-x="773" 
d="M464 749c91 -109 210 -281 312 -554c-81 -112 -191 -194 -262 -239c-34 160 -87 270 -116 324c-97 -121 -156 -236 -192 -324c-48 34 -133 102 -217 228c98 147 247 346 475 565z" />
    <glyph glyph-name="afii10078" unicode="&#x43c;" horiz-adv-x="898" 
d="M392 765c20 -31 41 -66 62 -105c21 36 47 74 78 113c155 -170 282 -366 377 -583c-46 -61 -106 -126 -233 -225c-42 122 -76 191 -99 233c-53 -85 -106 -142 -141 -177c-38 39 -90 102 -122 178c-38 -55 -84 -130 -130 -227c-110 101 -159 164 -198 232
c161 298 292 454 406 561z" />
    <glyph glyph-name="afii10079" unicode="&#x43d;" horiz-adv-x="739" 
d="M62 696c67 7 131 9 192 9c48 0 73 -2 97 -6c-14 -85 -22 -128 -21 -205c30 2 63 3 97 2c1 55 11 136 31 197c60 5 92 8 120 8c53 0 101 -4 136 -10c-22 -152 -25 -198 -25 -313c0 -119 4 -211 27 -378c-36 -2 -100 -5 -150 -5c-48 0 -80 3 -113 8
c-20 142 -25 241 -27 303c-29 -1 -59 -1 -89 0c4 -121 13 -221 22 -297c-97 -14 -191 -16 -274 -12c-22 134 -37 303 -37 446c0 90 4 170 14 253z" />
    <glyph glyph-name="afii10080" unicode="&#x43e;" horiz-adv-x="793" 
d="M23 345c0 209 167 376 376 376s376 -167 376 -376s-167 -376 -376 -376s-376 167 -376 376zM428 208c0 -44 35 -78 77 -78c44 0 78 34 78 78c0 42 -34 77 -78 77c-43 0 -77 -34 -77 -77z" />
    <glyph glyph-name="afii10081" unicode="&#x43f;" horiz-adv-x="720" 
d="M316 -3c-94 -11 -175 -9 -254 2c-7 53 -17 140 -17 297c0 123 7 246 29 382c85 7 244 17 412 17c66 0 129 -3 186 -6c5 -71 13 -221 13 -427c0 -93 -2 -174 -9 -275c-129 -2 -213 4 -287 13c-4 105 -6 159 -6 207c0 74 4 171 8 240c-29 1 -59 2 -89 2
c-3 -36 -5 -69 -5 -117c0 -186 17 -317 19 -335z" />
    <glyph glyph-name="afii10082" unicode="&#x440;" horiz-adv-x="645" 
d="M78 695c8 1 75 8 135 8c78 0 179 -9 267 -61c174 -103 206 -313 71 -453c-52 -54 -132 -95 -226 -104c3 -27 6 -56 10 -88c-149 -15 -256 2 -279 6c-11 75 -17 153 -17 266c0 152 5 274 39 426zM317 285c-3 -40 -3 -80 0 -122c13 5 24 12 31 22c8 11 13 26 13 41
c0 13 -4 26 -11 36c-7 11 -18 18 -33 23z" />
    <glyph glyph-name="afii10083" unicode="&#x441;" horiz-adv-x="635" 
d="M574 94c10 -31 11 -52 11 -78v-26c-52 -15 -109 -25 -183 -25c-246 0 -377 147 -377 329c0 169 129 407 445 407c48 0 92 -4 131 -11c5 -56 5 -96 5 -170c0 -106 -2 -177 -30 -294c-31 6 -45 10 -60 10c-45 0 -80 -20 -80 -58c0 -36 32 -87 138 -84z" />
    <glyph glyph-name="afii10084" unicode="&#x442;" horiz-adv-x="538" 
d="M26 683c113 10 200 10 224 10c96 0 217 -8 274 -12c14 -122 11 -192 6 -241c-36 -6 -76 -10 -118 -11c3 -45 3 -90 3 -153c0 -108 -7 -194 -18 -285c-60 -2 -150 -2 -259 13c-2 31 -6 101 -6 177c0 93 3 168 10 242c-49 4 -94 7 -137 11c-5 112 7 191 21 249z" />
    <glyph glyph-name="afii10085" unicode="&#x443;" horiz-adv-x="708" 
d="M-7 640c51 29 117 62 235 103c34 -63 80 -145 143 -237c44 69 75 129 130 243c122 -60 183 -96 235 -134c-86 -195 -292 -511 -446 -704c-95 53 -171 109 -229 157c77 93 120 158 148 206c-117 164 -176 279 -216 366z" />
    <glyph glyph-name="afii10086" unicode="&#x444;" horiz-adv-x="883" 
d="M614 738l-26 -102c167 -24 273 -147 273 -289c0 -66 -28 -140 -67 -189c-7 -9 -88 -108 -221 -105c4 -36 10 -70 15 -102c-29 -8 -56 -12 -101 -12c-87 0 -181 13 -196 15v89c-100 13 -190 65 -235 144c-64 112 -30 254 36 333c45 54 118 95 200 106v97
c50 12 113 23 200 23c51 0 86 -2 122 -8zM436 239c0 -44 35 -78 77 -78c44 0 78 34 78 78c0 42 -34 77 -78 77c-43 0 -77 -34 -77 -77z" />
    <glyph glyph-name="afii10087" unicode="&#x445;" horiz-adv-x="775" 
d="M30 515c49 57 123 136 227 223c57 -48 111 -96 160 -145c50 45 103 81 157 111c51 -50 117 -123 182 -228c-47 -32 -89 -68 -126 -106c56 -76 99 -140 129 -187c-57 -72 -114 -127 -249 -229c-59 102 -93 151 -126 194c-89 -84 -137 -157 -162 -201
c-121 91 -165 119 -239 193c44 68 92 131 192 240c-47 53 -97 98 -145 135z" />
    <glyph glyph-name="afii10088" unicode="&#x446;" horiz-adv-x="781" 
d="M345 274c179 3 273 -14 421 -58c3 -24 5 -52 5 -88c0 -92 -17 -229 -39 -333c-65 -2 -123 4 -298 35c18 72 26 126 31 159c-75 14 -178 28 -400 29c-19 107 -28 255 -28 381c0 63 3 164 19 291c95 11 211 12 312 -6c-18 -135 -27 -266 -23 -410zM479 720
c66 -12 113 -28 200 -61c-27 -249 -33 -299 -48 -376c-49 3 -125 13 -221 58c-11 107 5 221 69 379z" />
    <glyph glyph-name="afii10089" unicode="&#x447;" horiz-adv-x="705" 
d="M403 699c29 6 58 10 102 10c67 0 126 -7 177 -17c-14 -98 -34 -284 -34 -379c0 -86 14 -225 26 -308c-51 -10 -86 -12 -165 -12c-44 0 -71 1 -113 5c-18 77 -21 141 -20 184c-67 -56 -165 -52 -223 -24c-60 29 -116 92 -116 219c0 121 41 224 89 320c11 2 65 14 114 14
c17 0 44 -2 106 -10c-44 -114 -49 -167 -49 -204c0 -17 -1 -27 3 -43c24 2 46 3 67 4c7 127 25 203 36 241z" />
    <glyph glyph-name="afii10090" unicode="&#x448;" horiz-adv-x="923" 
d="M288 665c-24 -94 -44 -291 -44 -418c133 12 205 16 342 16c-8 77 -11 157 -11 257c0 77 4 133 9 183c49 2 73 4 100 4c36 0 93 -6 190 -34c6 -37 14 -123 14 -301c0 -101 -10 -280 -24 -398c-238 26 -555 42 -800 37c-18 124 -27 224 -27 331c0 118 8 213 27 310
c66 11 135 17 224 13zM383 753c41 -9 98 -28 177 -80c-19 -182 -31 -280 -55 -392c-53 3 -123 15 -194 49c-8 61 -8 95 -8 104c0 95 19 212 80 319z" />
    <glyph glyph-name="afii10091" unicode="&#x449;" horiz-adv-x="1044" 
d="M66 19c-9 42 -29 152 -29 319c0 56 2 186 28 350c70 17 127 20 175 20c43 0 86 -3 120 -6c-24 -124 -32 -300 -26 -415c23 3 46 4 69 2c-3 61 -3 100 -3 113c0 72 6 217 34 297c32 8 55 10 92 10c77 0 129 -7 168 -14c-40 -148 -63 -260 -59 -418c125 -1 287 -22 394 -60
c5 -38 5 -71 5 -115c0 -54 -8 -151 -39 -307c-62 -3 -122 1 -300 31c20 82 28 131 31 158c-167 26 -347 38 -660 35zM775 737c83 -19 138 -51 170 -73l-4 -37c-5 -43 -26 -236 -41 -344c-89 5 -158 32 -199 52c-18 132 17 284 74 402z" />
    <glyph glyph-name="afii10092" unicode="&#x44a;" horiz-adv-x="752" 
d="M442 392c-11 -30 -15 -63 -11 -97c21 -6 40 2 50 14c6 8 10 18 10 28c0 9 0 18 -3 26c-5 11 -17 28 -46 29zM524 637c-37 -78 -50 -105 -62 -159c83 -4 164 -33 213 -83c76 -77 90 -215 30 -316c-62 -104 -181 -133 -250 -133c-77 0 -197 34 -278 133
c-7 181 18 284 34 338c-21 8 -40 11 -62 11c-38 0 -78 -8 -113 -22c-22 100 -31 194 -10 303c160 14 347 -11 498 -72z" />
    <glyph glyph-name="afii10093" unicode="&#x44b;" horiz-adv-x="986" 
d="M667 687c78 9 165 11 282 -7c-18 -110 -35 -275 -35 -379c0 -92 14 -223 27 -308c-40 -7 -142 -21 -278 -7c-17 129 -27 199 -27 332c0 131 11 252 31 369zM352 686c-11 -55 -23 -124 -33 -217c165 20 288 -96 288 -245c0 -197 -161 -278 -287 -278
c-122 0 -220 72 -265 115c-15 149 -18 225 -18 280c0 168 20 287 33 352c31 4 61 7 94 7c71 0 148 -8 188 -14zM310 169c-3 -16 -3 -33 -3 -49s4 -32 8 -48c30 -3 52 18 52 49c0 30 -25 52 -57 48z" />
    <glyph glyph-name="afii10094" unicode="&#x44c;" horiz-adv-x="615" 
d="M350 686c-11 -55 -23 -124 -33 -217c74 10 164 -16 221 -74c76 -78 90 -215 30 -316c-61 -104 -180 -133 -255 -133c-117 0 -212 70 -260 115c-11 114 -16 171 -16 278c0 181 19 295 31 354c30 4 62 7 99 7c69 0 143 -8 183 -14zM308 169c-3 -15 -3 -31 -3 -46
c0 -17 3 -34 8 -51c28 -4 53 16 53 48c0 30 -26 51 -58 49z" />
    <glyph glyph-name="afii10095" unicode="&#x44d;" 
d="M-25 97c191 56 223 164 223 231c0 128 -126 205 -213 238c17 22 110 136 256 192c176 -77 263 -250 263 -394c0 -179 -124 -352 -337 -444c-47 31 -118 85 -192 177zM176 373c-19 -69 -26 -102 -30 -124c-79 23 -116 38 -149 54c14 65 26 99 40 133
c67 -20 112 -46 139 -63z" />
    <glyph glyph-name="afii10096" unicode="&#x44e;" horiz-adv-x="967" 
d="M396 653c-20 -59 -26 -107 -29 -141l4 -1c27 76 87 128 150 153c88 35 196 20 270 -27c88 -57 150 -169 150 -309c0 -169 -91 -277 -182 -324c-85 -44 -189 -45 -265 -18c-137 48 -181 171 -195 221h-4c0 -45 2 -117 8 -208c-35 -4 -81 -7 -115 -7c-33 0 -80 4 -110 7
c-4 20 -29 160 -29 354c0 157 17 256 30 320c91 15 225 12 317 -20zM420 403c0 -44 35 -78 77 -78c44 0 78 34 78 78c0 42 -34 77 -78 77c-43 0 -77 -34 -77 -77z" />
    <glyph glyph-name="afii10097" unicode="&#x44f;" horiz-adv-x="664" 
d="M374 3v85c-31 -33 -60 -71 -105 -146c-61 31 -117 65 -221 137c23 46 51 88 82 127c-43 57 -67 128 -67 192c0 75 32 215 238 277c113 34 241 30 310 24c36 -205 40 -361 40 -499c0 -77 -3 -129 -12 -199c-83 -7 -172 -7 -265 2zM372 271c-20 3 -44 -1 -57 -9
c-8 -5 -16 -12 -16 -21s2 -18 7 -25c13 -20 44 -32 65 -35z" />
    <glyph glyph-name="afii10071" unicode="&#x451;" horiz-adv-x="584" 
d="M319 241h71c55 0 96 2 148 10c-2 -31 -6 -118 11 -248c-83 -11 -154 -14 -251 -14c-82 0 -159 3 -229 8c-3 21 -28 215 -28 396c0 135 14 232 24 292c76 10 126 11 200 11c106 0 175 -1 280 -16c-8 -60 -10 -140 -10 -179v-41c-14 1 -61 4 -96 4c-48 0 -95 -5 -120 -8
c1 -14 4 -74 4 -103c0 -30 -3 -85 -4 -112zM330 370c52 32 107 56 165 73c10 -22 23 -53 36 -103c-57 -30 -114 -53 -167 -70c-13 30 -16 43 -34 100zM117 852c65 11 103 26 125 36c10 -23 23 -61 29 -131c-57 -23 -105 -30 -135 -32c-1 41 -7 73 -19 127zM330 852
c65 11 103 26 125 36c10 -23 23 -61 29 -131c-57 -23 -105 -30 -135 -32c-1 41 -7 73 -19 127z" />
    <glyph glyph-name="afii10099" unicode="&#x452;" horiz-adv-x="678" 
d="M26 683c83 7 134 9 206 9c118 0 173 0 249 -11c6 -47 11 -109 6 -181c-84 -14 -144 -13 -178 -11c1 -19 3 -40 3 -62c35 24 68 31 108 31c137 0 273 -90 273 -341c0 -121 -37 -229 -134 -363c-101 86 -149 140 -186 191c15 30 24 64 24 106c0 41 -6 95 -48 95
c-51 0 -51 -90 -51 -142c-48 -11 -106 -16 -180 0c-3 59 -6 129 -6 210c0 91 3 180 10 272c-38 0 -77 2 -117 8c-6 95 8 151 21 189z" />
    <glyph glyph-name="afii10100" unicode="&#x453;" horiz-adv-x="506" 
d="M483 436c-111 -1 -104 3 -185 -1c-4 -37 -4 -60 -4 -101c0 -114 3 -175 19 -333c-88 -8 -178 -9 -275 2c-12 119 -17 236 -17 338c0 125 8 235 29 352c25 1 117 6 175 6c54 0 165 -3 272 -14c-12 -85 -14 -139 -14 -184v-65zM170 864c128 36 161 39 239 76
c6 -39 13 -79 23 -118c-129 -44 -212 -53 -264 -55c-1 13 -1 27 -1 40c0 19 1 38 3 57z" />
    <glyph glyph-name="afii10101" unicode="&#x454;" 
d="M561 97c-74 -92 -145 -146 -192 -177c-213 92 -337 265 -337 444c0 144 87 317 263 394c146 -56 239 -170 256 -192c-87 -33 -213 -110 -213 -238c0 -67 32 -175 223 -231zM360 373c27 17 72 43 139 63c14 -34 26 -68 40 -133c-33 -16 -70 -31 -149 -54
c-4 22 -11 55 -30 124z" />
    <glyph glyph-name="afii10102" unicode="&#x455;" horiz-adv-x="524" 
d="M367 710c44 -53 95 -120 172 -247c-76 -51 -105 -108 -131 -194c-26 -85 -63 -216 -254 -314c-91 111 -133 179 -167 248c102 63 132 147 175 252c40 100 88 189 205 255z" />
    <glyph glyph-name="afii10103" unicode="&#x456;" horiz-adv-x="388" 
d="M80 691c78 9 165 11 282 -7c-16 -102 -35 -281 -35 -379c0 -89 14 -221 27 -308c-40 -7 -142 -21 -278 -7c-15 115 -27 213 -27 327c0 59 1 199 31 374z" />
    <glyph glyph-name="afii10104" unicode="&#x457;" horiz-adv-x="388" 
d="M80 691c78 9 165 11 282 -7c-16 -102 -35 -281 -35 -379c0 -89 14 -221 27 -308c-40 -7 -142 -21 -278 -7c-15 115 -27 213 -27 327c0 59 1 199 31 374zM45 850c65 11 103 26 125 36c10 -23 23 -61 29 -131c-57 -23 -105 -30 -135 -32c-1 41 -7 73 -19 127zM258 850
c65 11 103 26 125 36c10 -23 23 -61 29 -131c-57 -23 -105 -30 -135 -32c-1 41 -7 73 -19 127z" />
    <glyph glyph-name="afii10105" unicode="&#x458;" horiz-adv-x="400" 
d="M63 693c85 7 179 7 280 -3c13 -75 20 -154 20 -249c0 -280 -45 -486 -180 -685c-101 86 -149 140 -186 191c67 129 89 254 89 454c0 122 -5 197 -23 292z" />
    <glyph glyph-name="afii10106" unicode="&#x459;" horiz-adv-x="1022" 
d="M398 280c-97 -121 -156 -236 -192 -324c-48 34 -133 102 -217 228c98 147 247 346 475 565c82 -95 149 -191 204 -284c24 7 46 10 66 10c78 0 163 -31 211 -80c76 -77 90 -215 30 -316c-61 -103 -180 -133 -255 -133c-28 0 -125 8 -201 68c-77 166 -61 162 -121 266z
M715 169c-5 -30 -4 -63 5 -97c28 -4 53 16 53 48c0 30 -26 51 -58 49z" />
    <glyph glyph-name="afii10107" unicode="&#x45a;" horiz-adv-x="1005" 
d="M740 686c-11 -55 -23 -124 -33 -217c90 11 175 -27 221 -74c76 -78 90 -215 30 -316c-61 -104 -180 -133 -255 -133c-63 0 -165 22 -260 115c-8 69 -14 141 -17 245c-29 -1 -59 -1 -89 0c4 -121 13 -221 22 -297c-97 -14 -191 -16 -274 -12c-4 25 -37 227 -37 462
c0 91 5 166 14 237c67 7 131 9 192 9c48 0 73 -2 97 -6c-14 -85 -22 -128 -21 -205c30 2 63 3 97 2c1 55 11 136 31 197c34 5 72 8 120 8c57 0 105 -4 162 -15zM706 169c-5 -31 -4 -63 5 -97c33 -4 53 21 53 48c0 24 -21 51 -58 49z" />
    <glyph glyph-name="afii10108" unicode="&#x45b;" horiz-adv-x="716" 
d="M26 683c65 5 138 10 204 10c104 0 188 -5 251 -12c11 -90 8 -146 6 -181c-30 -5 -75 -11 -178 -11c1 -19 3 -40 3 -62c23 15 60 31 116 31c174 0 318 -172 251 -463c-61 -8 -112 -8 -144 -8c-11 0 -68 1 -141 11c19 127 -20 148 -39 148s-65 -6 -60 -150
c-90 -6 -147 2 -177 8c-3 60 -6 129 -6 210c0 93 3 179 10 269c-40 5 -79 8 -117 11c-6 95 8 151 21 189z" />
    <glyph glyph-name="afii10109" unicode="&#x45c;" horiz-adv-x="697" 
d="M479 704c51 -25 116 -67 202 -159c-67 -146 -118 -235 -162 -305c34 -42 60 -69 120 -130c-85 -94 -153 -146 -204 -179c-68 61 -101 113 -121 149l-3 -1v-87c-90 -4 -175 -4 -254 0c-9 88 -16 184 -16 281c0 163 10 291 36 425c42 2 124 3 270 -15
c-26 -125 -36 -219 -40 -277l-2 -29l2 1c32 53 85 144 172 326zM266 862c128 36 161 39 239 76c6 -39 13 -79 23 -118c-129 -44 -212 -53 -264 -55c-1 13 -1 27 -1 40c0 19 1 38 3 57z" />
    <glyph glyph-name="afii10110" unicode="&#x45e;" horiz-adv-x="708" 
d="M-7 640c51 29 117 62 235 103c34 -63 80 -145 143 -237c44 69 75 129 130 243c122 -60 183 -96 235 -134c-86 -195 -292 -511 -446 -704c-95 53 -171 109 -229 157c77 93 120 158 148 206c-117 164 -176 279 -216 366zM430 988c69 -44 102 -94 119 -134
c-52 -78 -127 -85 -182 -85c-49 0 -135 8 -185 104c88 16 189 67 248 115z" />
    <glyph glyph-name="afii10193" unicode="&#x45f;" horiz-adv-x="727" 
d="M414 685c94 11 175 9 254 -2c7 -53 17 -140 17 -297c0 -123 -7 -246 -29 -382c-53 -5 -108 -8 -165 -11c0 -61 4 -128 11 -199c-91 -13 -155 -18 -242 0c-10 82 -11 149 -10 197c-66 -3 -130 -2 -192 2c-6 87 -13 217 -13 394c0 112 2 201 9 308c129 2 213 -4 287 -13
c4 -105 6 -159 6 -207c0 -74 -4 -171 -8 -240c29 -1 59 -2 89 -2c3 36 5 69 5 117c0 186 -17 317 -19 335z" />
    <glyph glyph-name="afii10050" unicode="&#x490;" horiz-adv-x="612" 
d="M358 794l208 -16c-19 -208 -23 -244 -23 -277v-65c-135 -1 -120 3 -225 -1c-2 -28 -4 -58 -4 -101c0 -98 5 -199 19 -333c-88 -8 -178 -9 -275 2c-12 119 -17 236 -17 338c0 125 8 235 29 352c135 7 210 7 287 4z" />
    <glyph glyph-name="afii10098" unicode="&#x491;" horiz-adv-x="612" 
d="M358 794c67 -7 136 -12 208 -16c-8 -112 -23 -196 -23 -277v-65c-123 -1 -119 6 -225 -1c-4 -37 -4 -60 -4 -101c0 -114 3 -175 19 -333c-88 -8 -178 -9 -275 2c-12 119 -17 236 -17 338c0 125 8 235 29 352c118 6 194 8 287 4z" />
    <glyph glyph-name="endash" unicode="&#x2013;" horiz-adv-x="499" 
d="M30 458c73 6 130 8 203 8c78 0 169 0 230 -1c-2 -97 2 -124 -8 -191c-122 7 -254 9 -422 1c1 81 -2 56 -3 183z" />
    <glyph glyph-name="emdash" unicode="&#x2014;" horiz-adv-x="616" 
d="M35 465c47 4 136 9 276 9c36 0 200 -3 265 -4c2 -29 6 -82 3 -189c-249 3 -434 -8 -542 -17c-4 83 -5 108 -5 129c0 30 1 50 3 72z" />
    <glyph glyph-name="quoteleft" unicode="&#x2018;" horiz-adv-x="224" 
d="M212 382c-33 -4 -53 -4 -84 -4c-43 0 -73 0 -124 4c-1 97 8 168 60 235c21 27 71 81 167 93c-18 -91 -27 -228 -19 -328z" />
    <glyph glyph-name="quoteright" unicode="&#x2019;" horiz-adv-x="221" 
d="M216 711c20 -140 -33 -294 -202 -328c4 52 4 128 4 192c0 18 -2 41 -9 135c46 6 70 6 112 6c34 0 56 0 95 -5z" />
    <glyph glyph-name="quotesinglbase" unicode="&#x201a;" horiz-adv-x="314" 
d="M44 239c34 5 66 7 117 7c40 0 72 -2 110 -6c6 -32 11 -72 11 -131c0 -76 -11 -131 -58 -193c-38 -51 -94 -95 -195 -101c12 55 13 87 17 205c2 56 0 120 -2 219z" />
    <glyph glyph-name="quotedblleft" unicode="&#x201c;" horiz-adv-x="516" 
d="M33 383c-15 87 6 193 68 254c35 35 84 61 140 72c-6 -54 -8 -99 -8 -153c0 -69 6 -142 8 -172c-41 -4 -82 -6 -124 -6c-27 0 -52 1 -84 5zM279 389c-18 105 12 180 56 232c39 46 82 65 153 86c-7 -64 -7 -97 -7 -151v-75c1 -35 2 -66 5 -95c-78 -6 -125 -3 -207 3z" />
    <glyph glyph-name="quotedblright" unicode="&#x201d;" horiz-adv-x="516" 
d="M483 704c15 -87 -6 -193 -68 -254c-35 -35 -84 -61 -140 -72c6 54 8 99 8 153c0 69 -6 142 -8 172c41 4 82 6 124 6c27 0 52 -1 84 -5zM237 698c18 -105 -12 -180 -56 -232c-39 -46 -82 -65 -153 -86c7 64 7 97 7 151v75c-1 35 -2 66 -5 95c78 6 125 3 207 -3z" />
    <glyph glyph-name="quotedblbase" unicode="&#x201e;" horiz-adv-x="594" 
d="M51 211c43 7 103 13 234 7c3 -26 6 -89 -12 -152c-45 -159 -163 -195 -236 -207c16 112 20 211 14 352zM323 211c39 4 67 5 105 5c49 0 104 -1 127 -2c2 -37 3 -112 -17 -175c-48 -150 -165 -182 -227 -192c29 197 17 317 12 364z" />
    <glyph glyph-name="dagger" unicode="&#x2020;" horiz-adv-x="569" 
d="M148 770c114 9 187 10 261 5c10 -130 11 -178 6 -237c39 2 81 1 126 -4c4 -44 4 -92 0 -143c-46 -4 -88 -5 -128 -6c-3 -111 -2 -149 -4 -381c-25 -5 -63 -11 -109 -11c-28 0 -109 5 -149 8c-10 205 -11 314 -11 374c-39 0 -80 0 -124 1c-1 54 1 104 5 152
c42 5 82 6 120 5c6 137 -3 127 7 237z" />
    <glyph glyph-name="daggerdbl" unicode="&#x2021;" horiz-adv-x="561" 
d="M142 769c113 11 199 8 258 2c-5 -51 -6 -102 -5 -153c48 2 92 3 134 2c6 -48 7 -96 1 -144c-49 -5 -95 -7 -138 -6c2 -44 3 -91 3 -142c46 3 92 4 137 3c5 -52 5 -102 3 -148c-42 -6 -88 -11 -138 -12c1 -62 5 -119 9 -172c-120 -8 -180 -9 -254 -4c-4 56 -6 113 -6 171
c-36 -7 -75 -8 -115 -3c-5 46 -6 95 -3 147c37 5 76 8 116 8c-4 52 -5 104 -5 156c-40 -6 -80 -8 -119 -6c-5 48 -5 95 -2 140c37 6 79 10 123 10c-3 47 -3 97 1 151z" />
    <glyph glyph-name="bullet" unicode="&#x2022;" horiz-adv-x="531" 
d="M166 465c40 4 104 10 208 13c1 -19 2 -38 2 -57v-142c-29 -5 -59 -8 -88 -8c-32 0 -96 5 -122 7c-1 72 -2 95 -2 117c0 23 1 47 2 70z" />
    <glyph glyph-name="ellipsis" unicode="&#x2026;" horiz-adv-x="1095" 
d="M80 211c66 12 146 16 219 -3c4 -23 8 -46 8 -69c0 -42 -2 -91 -7 -125c-75 -14 -151 -13 -218 1c-5 32 -10 80 -10 113c0 28 3 55 8 83zM445 211c35 6 69 10 104 10c40 0 75 -3 115 -13c4 -23 8 -46 8 -69c0 -42 -2 -91 -7 -125c-39 -7 -78 -10 -117 -10
c-32 0 -65 3 -101 11c-5 32 -10 80 -10 113c0 28 3 55 8 83zM810 211c35 7 128 20 219 -3c4 -23 8 -46 8 -69c0 -42 -2 -91 -7 -125c-66 -12 -143 -15 -218 1c-5 32 -10 80 -10 113c0 28 3 55 8 83z" />
    <glyph glyph-name="Euro" unicode="&#x20ac;" horiz-adv-x="793" 
d="M729 546h-28c-16 96 -91 130 -188 130c-164 0 -224 -106 -243 -253h376l-26 -50h-354c-1 -10 -1 -23 -1 -34v-32h321l-26 -50h-290c15 -154 102 -243 242 -243c91 0 173 35 190 130h27l-9 -105c-40 -38 -104 -69 -235 -69c-222 0 -337 106 -364 287h-93l26 50h58
c-2 10 -2 26 -2 34c0 7 0 24 1 32h-83l26 50h63c30 173 127 298 368 298c137 0 201 -33 235 -65z" />
    <glyph glyph-name="trademark" unicode="&#x2122;" horiz-adv-x="778" 
d="M17 687c19 1 90 6 130 6c26 0 61 -1 163 -7c6 -78 6 -108 3 -142c-21 -3 -44 -6 -69 -7c2 -30 1 -51 1 -90c0 -69 -3 -108 -10 -167c-26 -2 -76 -3 -153 7c-2 35 -3 63 -3 104c0 53 1 93 6 143c-29 2 -56 4 -81 6c-1 71 4 110 13 147zM494 704c14 -19 25 -38 35 -57
c13 22 27 43 42 62c97 -107 163 -224 205 -318c-24 -32 -57 -70 -127 -123c-12 38 -27 76 -54 127c-28 -45 -56 -76 -77 -97c-39 44 -58 80 -66 97c-21 -30 -40 -62 -71 -123c-59 53 -88 92 -108 126c87 165 172 258 221 306z" />
    <glyph glyph-name="hyphenminus" horiz-adv-x="356" 
d="M36 479c56 3 112 5 158 5c40 0 74 -1 119 -6c2 -26 4 -65 4 -96c0 -11 0 -41 -2 -114c-123 17 -189 26 -280 15c-4 74 -1 83 1 196z" />
    <glyph glyph-name="quilsinglleft" horiz-adv-x="321" 
d="M179 363c63 -68 110 -139 146 -210c-39 -40 -83 -70 -129 -94c-96 168 -173 242 -226 285c95 170 195 259 248 302c45 -33 81 -70 111 -108c-52 -49 -103 -107 -150 -175z" />
    <glyph glyph-name="quilsinglright" horiz-adv-x="318" 
d="M121 344c-49 77 -102 148 -156 212c40 35 86 67 140 93c127 -138 185 -231 223 -303c-32 -33 -110 -118 -201 -266c-51 21 -100 47 -147 78c40 65 87 127 141 186z" />
    <glyph glyph-name="numero" horiz-adv-x="1113" 
d="M665 689c-15 -151 -23 -329 -25 -470c-2 -128 1 -177 5 -299c-94 50 -188 109 -336 220c0 -50 2 -98 6 -143c-79 -7 -163 -8 -251 -1c-8 115 -14 244 -14 354c0 140 8 271 34 416c83 -68 144 -108 312 -211v22c0 51 3 92 8 128c42 1 115 0 261 -16zM703 508
c0 88 76 181 181 181c87 0 185 -71 185 -182c0 -91 -70 -180 -183 -180c-103 0 -183 85 -183 181zM875 458c0 -28 23 -52 50 -52s50 23 50 50s-23 50 -50 50s-50 -22 -50 -48zM703 271c170 10 197 15 374 7c1 -129 -4 -168 -7 -191c-45 6 -79 7 -141 7
c-90 0 -171 -3 -223 -6c0 59 0 96 -3 183z" />
    </font>
</defs>
</svg>
