<svg xmlns="http://www.w3.org/2000/svg" viewBox="0 0 58 58"><defs><style>.cls-1{fill:#191919;}</style></defs><title>logo</title><g id="Слой_2" data-name="Слой 2"><g id="Слой_1-2" data-name="Слой 1"><polygon class="cls-1" points="58 58 42.4 58 42.4 55.1 55.1 55.1 55.1 42.4 58 42.4 58 58"/><polygon class="cls-1" points="58 15.6 55.1 15.6 55.1 2.9 42.4 2.9 42.4 0 58 0 58 15.6"/><polygon class="cls-1" points="15.6 58 0 58 0 42.4 2.9 42.4 2.9 55.1 15.6 55.1 15.6 58"/><polygon class="cls-1" points="2.9 15.6 0 15.6 0 0 15.6 0 15.6 2.9 2.9 2.9 2.9 15.6"/><rect class="cls-1" x="26.6" y="11.9" width="4.8" height="36.1"/></g></g></svg>