<?xml version="1.0" encoding="utf-8"?>
<!-- Generator: Adobe Illustrator 21.0.2, SVG Export Plug-In . SVG Version: 6.00 Build 0)  -->
<svg version="1.1" id="Слой_1" xmlns="http://www.w3.org/2000/svg" xmlns:xlink="http://www.w3.org/1999/xlink" x="0px" y="0px"
	 viewBox="0 0 2536 2536" style="enable-background:new 0 0 2536 2536;" xml:space="preserve">
<style type="text/css">
	.st0{opacity:3.000000e-02;fill:#FFFFFF;enable-background:new    ;}
	.st1{opacity:0.17;fill:#FFFFFF;enable-background:new    ;}
	.st2{fill:#FFFFFF;}
</style>
<title>ni</title>
<g id="Слой_2">
	<g id="Layer_1">
		<path class="st0" d="M2536,634v1268c0,204.3-96.6,386-246.6,501.9c-7.6,5.9-15.3,11.5-23.1,17.1c-106.6,75-233.8,115.2-364.2,115
			H634c-350.1,0-634-283.9-634-634V634c0-204.3,96.6-386,246.6-501.9c7.6-5.9,15.3-11.5,23.1-17.1C376.4,40,503.6-0.2,634,0h1268
			C2252.1,0,2536,283.9,2536,634z"/>
		<path class="st1" d="M2268,778v990c0,161.1-76.2,304.4-194.5,395.9c-4.2,3.3-8.5,6.4-12.8,9.6c-1.1,0.9-2.2,1.7-3.4,2.4l-0.3,0.2
			c-0.7,0.4-1.4,0.8-2.1,1.1l-0.2,0.1c-0.4,0.1-0.8,0.3-1.2,0.4l-0.5,0.1l-0.4,0.1c-0.3,0.1-0.6,0.1-0.9,0.2l-0.7,0.1h-0.4
			c-0.5,0.1-1.1,0.1-1.6,0.1c-1.9,0-3.8-0.4-5.6-1.1l-0.5-0.2l-0.3-0.1l-0.7-0.3l-5.4-2.6l-7.3-3.5l-258.5-123.7
			c-180.5-86.3-320.1-239.7-389.2-427.4L1128.2,931c-67.7-183.9-202.3-331.7-379.1-416.3l-184.1-88l-72.8-34.8l-11.1-5.3H481
			l-1.3-0.6l0,0c-4.8-2.6-7.8-7.7-7.8-13.2c0-0.2,0-0.4,0-0.5c0-0.3,0-0.5,0-0.8c0-0.1,0-0.2,0-0.3c0-0.2,0-0.4,0.1-0.6
			c0-0.2,0.1-0.4,0.1-0.6c0.1-0.5,0.2-0.9,0.3-1.4c0.1-0.3,0.2-0.6,0.3-0.9s0.1-0.4,0.2-0.6c0.3-0.8,0.7-1.5,1.1-2.2
			c0.7-1.1,1.5-2.1,2.5-3c0.3-0.3,0.6-0.5,0.9-0.8l1.4-1l1.8-1.3c84.1-59.2,184.5-90.9,287.3-90.8h990
			C2039.7,268,2268,496.3,2268,778z"/>
		<path class="st2" d="M2268,778v963.8c0,7.6-6.2,13.7-13.8,13.8c-0.7,0-1.3-0.1-2-0.2c-6.7-1-11.7-6.8-11.7-13.6V805.5
			c0-281.7-228.3-510-510-510H794.3c-6.8,0-12.6-5-13.6-11.7c-0.1-0.7-0.1-1.3-0.2-2c0-7.6,6.1-13.8,13.7-13.8l0,0H1758
			C2039.7,268,2268,496.3,2268,778z"/>
		<path class="st2" d="M1775.5,2254.3c0,7.6-6.2,13.7-13.8,13.8H778c-281.7,0-510-228.3-510-510V774.3c0-7.6,6.2-13.7,13.8-13.8
			c0.7,0,1.3,0.1,2,0.2c6.7,1,11.7,6.8,11.7,13.6v956.3c0,281.7,228.3,510,510,510h956.3c6.8,0,12.6,5,13.6,11.7
			C1775.4,2252.9,1775.5,2253.6,1775.5,2254.3z"/>
		<path class="st2" d="M2064.1,2163.2c0,2.8-0.8,5.5-2.3,7.9c-0.7,1.1-1.5,2.1-2.5,3c-0.6,0.6-1.3,1.2-2.1,1.6l-0.3,0.2
			c-0.7,0.4-1.4,0.8-2.1,1.1l-0.2,0.1c-0.4,0.1-0.8,0.3-1.2,0.4l-0.5,0.1l-0.4,0.1c-0.3,0.1-0.6,0.1-0.9,0.2l-0.7,0.1h-0.4
			c-0.5,0.1-1.1,0.1-1.6,0.1c-1.9,0-3.8-0.4-5.6-1.1l-0.5-0.2l-0.3-0.1l-0.7-0.3l-5.4-2.6l-7.3-3.5l-258.5-123.7
			c-180.5-86.3-320.1-239.7-389.2-427.4L1128.2,931c-67.7-183.9-202.3-331.7-379.1-416.3l-184.1-88l-72.8-34.8l-11.1-5.3H481
			l-1.3-0.6l0,0c-4.8-2.6-7.8-7.7-7.8-13.2c0-0.2,0-0.4,0-0.5c0-0.3,0-0.5,0-0.8c0-0.1,0-0.2,0-0.3c0-0.2,0-0.4,0.1-0.6
			c0-0.2,0.1-0.4,0.1-0.6c0.1-0.5,0.2-0.9,0.3-1.4c0.1-0.3,0.2-0.6,0.3-0.9s0.1-0.4,0.2-0.6c0.3-0.8,0.7-1.5,1.1-2.2
			c0.7-1.1,1.5-2.1,2.5-3c0.3-0.3,0.6-0.5,0.9-0.8l1.4-1c4.2-2.6,9.5-3,14-1l0.7,0.3l12.7,6.1l58.6,28L765,489.3
			c180.5,86.3,320.1,239.7,389.2,427.4l253.5,688.3c67.7,183.9,202.3,331.7,379.1,416.3l184,88.1l0,0l72.8,34.8l11.1,5.3h0.1
			l1.3,0.6l0,0C2061.1,2152.7,2064.1,2157.7,2064.1,2163.2z"/>
	</g>
</g>
</svg>
