<svg xmlns="http://www.w3.org/2000/svg" viewBox="0 0 8105.25 976.41"><defs><style>.cls-1{fill:#191919;}</style></defs><title>logo</title><g id="Слой_2" data-name="Слой 2"><g id="Слой_2-2" data-name="Слой 2"><g id="retouch_studio" data-name="retouch studio"><g id="retouch"><path id="t" class="cls-1" d="M1512.62,851.49c-68.52,0-124.06-50.94-124.06-113.77V375.21h132.06V250.67H1388.56V1.49H1258V250.67h-62.13V375.21H1258V800.53A170.27,170.27,0,0,0,1272.21,862c21,48,63.4,85.92,116.35,104a214,214,0,0,0,42.49,9.79H1582.6V851.49Z"/><path class="cls-1" d="M1172.42,560.31C1149.62,384.79,1014.25,250,850.67,250a293.73,293.73,0,0,0-64,7c-133.8,29.82-238,151.3-257.71,303.3a405.85,405.85,0,0,0-3.39,52.55q0,10.64.54,21.09a400.19,400.19,0,0,0,8.75,65.37,388.33,388.33,0,0,0,11.13,40.4q4.3,12.88,9.45,25.28a375.57,375.57,0,0,0,19.44,40.09,361.05,361.05,0,0,0,47.09,65.68c45.26,50,103.59,85.25,168.77,98.81a293,293,0,0,0,60,6.17c89.19,0,170-40.08,228.73-105a360.09,360.09,0,0,0,47.09-65.68H954.23c-30.24,20.35-65.67,32-103.56,32a181.15,181.15,0,0,1-37.08-3.81,187.5,187.5,0,0,1-66.51-28.24A208.14,208.14,0,0,1,703,765a222,222,0,0,1-18.08-25.28,231.59,231.59,0,0,1-19.73-40.4h501.34a401.28,401.28,0,0,0,8.75-65.37q.54-10.47.54-21.09A404.08,404.08,0,0,0,1172.42,560.31ZM651.8,561.57c12.21-94,76.59-164.23,159.28-182.66a181.87,181.87,0,0,1,39.59-4.35c101.1,0,184.76,78.53,198.85,187q.86,6.52,1.36,13.16H650.45C650.79,570.31,651.23,565.92,651.8,561.57Z"/><path id="o" class="cls-1" d="M1917.38,250.67c-179.37,0-324.78,162.46-324.78,362.87S1738,976.41,1917.38,976.41,2242.16,814,2242.16,613.54,2096.75,250.67,1917.38,250.67Zm0,601.5c-110.86,0-200.73-114.77-200.73-238.63s89.87-238.33,200.73-238.33,200.73,114.46,200.73,238.33S2028.24,852.17,1917.38,852.17Z"/><path class="cls-1" d="M4361.35,640V975.76H4237.57V651.23c0-60.9-14.35-117.19-38.66-162.83-36.54-68.62-95.58-113.19-162.2-113.19S3911,419.78,3874.5,488.4c-24.31,45.64-38.66,101.93-38.66,162.83v98.53h-.27v226H3711.79V1.81h123.78V281c.08-.09.17,52.55.27,52.47,55.25-52.21,125-83.36,200.73-83.36s145.72,31.25,201,83.61a354.36,354.36,0,0,1,28.08,29.89c27.3,32.59,49.79,71,66.09,113.49C4350.75,526.69,4361.35,581.84,4361.35,640Z"/><path class="cls-1" d="M3651.79,764.29a366.73,366.73,0,0,1-65.95,105.65A336.85,336.85,0,0,1,3557.5,898c-52.09,45.93-117.1,74.42-187.93,77.55h-26.14C3272.6,972.46,3207.59,944,3155.5,898a336.85,336.85,0,0,1-28.34-28.1,366.73,366.73,0,0,1-65.95-105.65,402.75,402.75,0,0,1,.12-302.85,366.5,366.5,0,0,1,66.09-105.65A339.54,339.54,0,0,1,3155.5,328c55.28-48.74,125.11-77.83,201-77.83s145.72,29.09,201,77.83a339.54,339.54,0,0,1,28.08,27.82,366.5,366.5,0,0,1,66.09,105.65H3518.6c-36.52-63.88-95.53-86.19-162.1-86.19s-125.58,41.49-162.1,105.36c-24.29,42.48-38.63,75.71-38.63,132.4s14.28,91.08,38.46,133.51c36.51,64,95.6,105.65,162.27,105.65s125.76-23.84,162.27-87.88Z"/><path id="u" class="cls-1" d="M2961.72,250.67V976.41H2837.94V898.58c-2.86,2.53-5.77,5-8.71,7.42l-1.77,1.45q-4.1,3.31-8.29,6.5l-1.91,1.43c-1.31,1-2.62,2-4,2.91-.71.52-1.44,1-2.16,1.55l-.54.39-2.43,1.7q-3.29,2.28-6.63,4.49l-2.59,1.69-1,.62c-.69.44-1.39.89-2.09,1.32q-3.9,2.46-7.86,4.79l-3.23,1.87c-1.17.66-2.34,1.33-3.52,2l-3,1.65-1.16.62c-1,.53-1.95,1-2.94,1.55s-2.25,1.17-3.39,1.75c-1.56.79-3.12,1.56-4.7,2.32-.91.45-1.82.88-2.73,1.31l-4.09,1.9-3.24,1.45-3.49,1.52-.3.11c-2.44,1-4.9,2-7.37,3-1.25.49-2.5,1-3.76,1.45l-3.17,1.18-1.53.55c-1.11.4-2.23.8-3.35,1.18s-2.24.77-3.36,1.14c-1.28.43-2.55.84-3.84,1.25-1.67.53-3.36,1.05-5,1.54-.72.23-1.44.44-2.16.64-1,.31-2.1.61-3.15.89-.73.22-1.46.41-2.2.61-1,.27-2,.54-3,.79l-3.35.85c-1.51.37-3,.73-4.54,1.07-1.3.3-2.6.59-3.9.86a2.57,2.57,0,0,1-.38.08c-.93.21-1.87.4-2.82.59-.65.14-1.3.26-2,.39-1,.21-2.05.4-3.08.58s-2.2.41-3.3.59c-.64.12-1.27.23-1.91.33-1.44.24-2.88.47-4.33.68-.8.13-1.61.25-2.41.36l-3.75.51-1,.12-2.47.31-2,.22-1.27.13-2.76.28c-3.53.34-7.07.61-10.63.83q-1.42.09-2.85.15l-.89,0c-.68,0-1.37.07-2.05.09l-2.83.1-1,0-2.49.06-1.53,0-3.9,0-3.9,0-1.18,0h-.35l-2.49-.06-1,0-2.83-.1c-.68,0-1.37,0-2-.09l-.89,0-.49,0q-1.12,0-2.25-.12h-.11l-2.73-.18-1.87-.14c-2-.14-4-.32-6-.51l-2.76-.28-1.27-.13-2-.22-2.47-.31-1-.12-3.75-.51c-.8-.11-1.61-.23-2.41-.36s-1.36-.2-2-.31l-2.29-.37c-.64-.1-1.27-.21-1.91-.33a2.66,2.66,0,0,1-.39-.07c-.79-.12-1.57-.26-2.35-.41l-.56-.11-.77-.13-2.31-.45c-.66-.13-1.31-.25-2-.39-.95-.19-1.89-.38-2.82-.59a2.57,2.57,0,0,1-.38-.08c-1.3-.27-2.6-.56-3.9-.86-1.11-.25-2.23-.51-3.34-.78l-1.2-.29-3.35-.85c-1-.25-2-.52-3-.79-.74-.2-1.47-.39-2.2-.61-1-.28-2.1-.58-3.15-.89-.72-.2-1.44-.41-2.16-.64l-2.26-.68-2.78-.86c-1.29-.41-2.56-.82-3.84-1.25-1-.32-1.95-.65-2.92-1l-.44-.15c-1-.33-2-.67-2.93-1l-.42-.15-1.53-.55-3.17-1.18c-1.26-.47-2.51-1-3.76-1.45-2.47-1-4.93-2-7.37-3l-.3-.11-3.49-1.52-3.12-1.4-.12-.05-4.09-1.9c-.91-.43-1.82-.86-2.73-1.31l-1.4-.68-3.11-1.54-.19-.1c-1.14-.58-2.27-1.16-3.39-1.75s-2-1-2.94-1.55l-1.16-.62-3-1.65c-1.18-.65-2.35-1.32-3.52-2l-3.23-1.87c-1.41-.84-2.82-1.67-4.21-2.53-.81-.48-1.61-1-2.41-1.48-.41-.26-.83-.51-1.24-.78-.7-.43-1.4-.88-2.09-1.32l-1-.62-2.59-1.69-1.16-.77-2.64-1.78c-1-.64-1.89-1.29-2.83-1.94l-2.43-1.7-.54-.39c-.72-.51-1.45-1-2.16-1.55l-.35-.26c-1.21-.88-2.41-1.75-3.6-2.65l-1.72-1.28c-.06-.05-.13-.09-.19-.15l-.67-.52c-.93-.7-1.85-1.41-2.76-2.12-.48-.38-1-.74-1.43-1.12-.87-.68-1.73-1.37-2.58-2.06l-.85-.68-1.77-1.45c-1.94-1.6-3.86-3.21-5.76-4.85-.65-.55-1.29-1.11-1.92-1.66l-1-.91-1.76-1.56c-.59-.52-1.17-1-1.75-1.58l-1.45-1.32-1.44-1.33c-.42-.38-.83-.76-1.24-1.16a.57.57,0,0,1-.11-.11c-.74-.68-1.47-1.38-2.2-2.08l-.12-.11-.57-.55,0,0-2.75-2.68c-.18-.16-.35-.34-.51-.5-1.09-1.07-2.16-2.15-3.23-3.23-.24-.24-.48-.48-.71-.73q-1.2-1.2-2.37-2.43c-.17-.18-.34-.35-.5-.53l-1.51-1.58c-.5-.52-1-1.05-1.49-1.59q-1.47-1.57-2.92-3.16l-.67-.75c-.86-.94-1.72-1.91-2.57-2.87-.17-.18-.33-.36-.49-.55l-.27-.31c-.53-.6-1.07-1.21-1.59-1.82s-1.19-1.37-1.76-2l-.47-.55c-.57-.65-1.12-1.31-1.68-2l-.21-.25c-.41-.48-.81-1-1.2-1.45l-1.84-2.23c-1.09-1.34-2.17-2.7-3.25-4.06-.89-1.13-1.78-2.28-2.66-3.42a2.55,2.55,0,0,1-.21-.28c-.06-.09-.13-.16-.19-.25-.47-.6-.94-1.2-1.39-1.82-.24-.3-.47-.62-.7-.93l-.12-.17c-.25-.3-.47-.6-.69-.91,0,0-.05-.08-.08-.11-.76-1-1.51-2-2.25-3.05-.11-.13-.2-.26-.3-.4-.8-1.11-1.6-2.22-2.4-3.35-1.09-1.53-2.18-3.09-3.25-4.65-.67-1-1.34-2-2-2.94s-1.17-1.76-1.75-2.64l-.28-.42c-.63-1-1.26-1.93-1.88-2.9s-1.28-2-1.92-3l-.14-.22c-.42-.65-.83-1.31-1.23-2l-.77-1.24c-.26-.41-.51-.83-.76-1.24-.66-1.09-1.32-2.17-2-3.26l-.34-.56c-.71-1.19-1.4-2.39-2.09-3.59s-1.33-2.31-2-3.48l-1.63-2.92c-.52-.93-1-1.86-1.53-2.8-.42-.76-.83-1.53-1.23-2.3s-.91-1.72-1.36-2.59c-.65-1.21-1.27-2.43-1.89-3.65q-1-2.07-2.07-4.14c-.11-.21-.21-.41-.3-.61-.41-.82-.8-1.64-1.2-2.47l-.19-.39-.16-.33c-.5-1.05-1-2.1-1.49-3.16s-1-2.2-1.53-3.31q-1.65-3.62-3.23-7.28c-.33-.77-.66-1.54-1-2.32-.22-.5-.43-1-.64-1.51s-.31-.74-.46-1.11-.26-.62-.38-.93c-.57-1.36-1.12-2.73-1.67-4.1,0,0,0,0,0-.05l-.17-.44c-.55-1.4-1.11-2.81-1.64-4.22-.47-1.22-.93-2.44-1.38-3.67l-.18-.46-.08-.23c-.31-.82-.61-1.66-.91-2.5s-.62-1.71-.92-2.57c-.45-1.28-.9-2.57-1.33-3.85-.21-.59-.41-1.2-.61-1.8-.43-1.25-.84-2.52-1.25-3.78,0-.12-.08-.24-.11-.36-.51-1.53-1-3.08-1.47-4.62s-1-3.24-1.47-4.87-.95-3.26-1.41-4.9c-.23-.82-.46-1.64-.68-2.46s-.45-1.63-.67-2.46q-.66-2.47-1.29-5c-.07-.28-.15-.57-.22-.86-.24-.94-.47-1.88-.7-2.83-.1-.4-.19-.81-.29-1.21a2.8,2.8,0,0,1-.06-.28c-.18-.7-.34-1.42-.51-2.14s-.33-1.41-.49-2.13-.3-1.29-.43-1.94-.34-1.51-.5-2.27-.36-1.67-.53-2.52-.41-1.93-.6-2.91c-.1-.43-.18-.88-.27-1.31-.22-1.12-.44-2.24-.64-3.37-.14-.69-.27-1.39-.4-2.09-.09-.49-.18-1-.26-1.47q-.33-1.8-.63-3.6c0-.1,0-.2,0-.3-.28-1.66-.55-3.32-.81-5-.22-1.34-.42-2.68-.61-4-.07-.4-.12-.82-.18-1.23l0-.22c-.13-.91-.26-1.81-.38-2.73l-.06-.42c-.09-.71-.19-1.42-.28-2.14-.11-.89-.23-1.79-.33-2.69,0,0,0-.07,0-.12-.09-.7-.17-1.4-.25-2.1-.14-1.2-.27-2.4-.39-3.61-.05-.33-.08-.67-.11-1-.06-.51-.11-1-.16-1.54-.08-.76-.15-1.52-.22-2.28s-.15-1.57-.22-2.36c-.1-1.07-.19-2.14-.27-3.2-.07-.81-.13-1.62-.19-2.44-.09-1.16-.17-2.31-.25-3.46l-.09-1.44c-.07-1.09-.14-2.18-.19-3.26,0-.69-.08-1.39-.11-2.09s-.06-1.23-.09-1.85,0-1.24-.08-1.85c0-.38,0-.76,0-1.14,0-1-.08-2-.1-3s-.06-1.92-.08-2.87q-.12-4.85-.12-9.72V250.67h123.78V595.24l.46,18.3c6.9,143.48,94,238.63,200.54,238.63,109.47,0,198.5-119.88,200.94-269,0-1,0-2.1,0-3.15s0-2.1,0-3.15V250.67Z"/><path id="r_serif" data-name="r serif" class="cls-1" d="M325,250c-75.77,0-145.49,22.16-200.74,59.28V250.33H0V975.75H124.28v-430l0-18.6c0-92.59,86-149.4,193.59-152.59H525.52V250Z"/></g><g id="studio"><path id="t-2" data-name="t" class="cls-1" d="M5644.17,851.49c-68.52,0-124.06-50.94-124.06-113.77V375.21h132.06V250.67H5520.11V1.49H5389.5V250.67h-62.13V375.21h62.13V800.53A170.27,170.27,0,0,0,5403.76,862c21,48,63.4,85.92,116.35,104a214,214,0,0,0,42.49,9.79h151.55V851.49Z"/><path id="o-2" data-name="o" class="cls-1" d="M7780.47,250.67c-179.37,0-324.78,162.46-324.78,362.87s145.41,362.87,324.78,362.87S8105.25,814,8105.25,613.54,7959.84,250.67,7780.47,250.67Zm0,601.5c-110.86,0-200.73-114.77-200.73-238.63s89.87-238.33,200.73-238.33S7981.2,489.67,7981.2,613.54,7891.33,852.17,7780.47,852.17Z"/><path id="d" class="cls-1" d="M6969.48,0V325.49c-55.29-48.78-125.1-77.9-201-77.9s-145.72,29.12-201,77.92c-75.3,66.45-123.66,169.38-123.77,285,0,3.25,0,6.5.11,9.72,0,1,0,1.91.08,2.87,0,.61,0,1.22.05,1.83,0,.38,0,.76.05,1.14,0,.19,0,.38,0,.57s0,.38,0,.57c0,.62.06,1.23.08,1.86s.05,1.23.09,1.84.07,1.4.11,2.09c.05,1.09.12,2.18.2,3.26,0,.49,0,1,.08,1.44.08,1.16.17,2.31.25,3.46.06.82.13,1.63.19,2.44.08,1.07.17,2.14.27,3.2.07.8.14,1.58.22,2.37s.14,1.52.22,2.28c.06.51.1,1,.16,1.53,0,.34.07.69.11,1,.12,1.2.25,2.4.39,3.61.09.7.16,1.4.25,2.1,0,0,0,.07,0,.12.1.89.22,1.79.34,2.69.08.71.19,1.42.27,2.13l.06.43c.13.91.25,1.81.38,2.73,0,.07,0,.14,0,.21,0,.41.1.83.17,1.24.19,1.35.39,2.69.62,4,.25,1.67.52,3.34.8,5a2.68,2.68,0,0,0,.05.3c.2,1.2.41,2.41.63,3.6.08.5.17,1,.27,1.48.12.7.25,1.4.4,2.09.19,1.13.41,2.24.64,3.36.08.44.17.88.26,1.32.2,1,.39,1.94.6,2.91s.35,1.68.54,2.52.31,1.51.5,2.27.27,1.29.42,1.93.33,1.43.49,2.14l.51,2.14a2.61,2.61,0,0,0,.06.27c.1.4.19.81.29,1.21.23,1,.46,1.9.71,2.84.06.28.14.57.21.85.42,1.66.85,3.3,1.29,4.95.22.83.44,1.65.67,2.47s.45,1.64.68,2.46c.46,1.64.94,3.27,1.42,4.9s1,3.25,1.46,4.86,1,3.09,1.47,4.63c0,.12.07.24.11.36.41,1.26.82,2.52,1.25,3.78.21.59.4,1.2.61,1.8.43,1.28.88,2.57,1.33,3.85.3.85.62,1.71.92,2.57s.6,1.67.91,2.5a1.43,1.43,0,0,1,.08.22,4.52,4.52,0,0,1,.18.47c.45,1.23.91,2.45,1.39,3.67.52,1.41,1.08,2.82,1.64,4.22a3.83,3.83,0,0,0,.17.43.07.07,0,0,0,0,0c.55,1.38,1.1,2.74,1.68,4.11.11.3.24.62.37.93s.3.74.46,1.11l.64,1.51c.32.78.65,1.54,1,2.31,1.05,2.44,2.13,4.88,3.23,7.28.5,1.11,1,2.21,1.53,3.31s1,2.11,1.49,3.16l.16.33.2.4c.39.83.79,1.64,1.19,2.46.1.2.19.41.31.61.67,1.38,1.36,2.77,2.06,4.14s1.24,2.44,1.9,3.65c.44.87.89,1.74,1.35,2.6s.81,1.53,1.23,2.29c.5.94,1,1.87,1.54,2.8s1.07,2,1.63,2.92q1,1.75,2,3.48c.69,1.21,1.39,2.4,2.1,3.59.1.19.21.37.33.56.64,1.1,1.3,2.18,2,3.26.25.41.5.83.76,1.24s.51.83.77,1.25c.4.65.81,1.31,1.23,2l.14.22c.64,1,1.27,2,1.92,3s1.25,1.93,1.89,2.9l.27.42,1.75,2.63,2,2.95c1.07,1.56,2.17,3.11,3.25,4.65.8,1.13,1.6,2.24,2.4,3.35l.3.4c.74,1,1.49,2,2.25,3a1,1,0,0,0,.08.11c.22.31.45.61.7.92l.11.16c.23.32.46.63.7.94.45.61.92,1.21,1.4,1.82,0,.08.12.16.18.24s.13.19.21.29q1.32,1.71,2.66,3.41,1.62,2.05,3.25,4.06c.61.75,1.22,1.49,1.84,2.23l1.2,1.45.21.26c.56.66,1.11,1.32,1.68,2q.22.27.48.54c.56.69,1.15,1.37,1.75,2.05s1.06,1.22,1.59,1.83l.28.31q.22.27.48.54c.85,1,1.71,1.93,2.57,2.88l.67.74c1,1.07,2,2.12,2.93,3.17.48.54,1,1.07,1.48,1.59s1,1,1.52,1.57c.15.18.32.35.5.53.77.82,1.56,1.63,2.36,2.44l.71.72c1.07,1.09,2.14,2.16,3.24,3.24.15.16.32.33.5.49l2.75,2.68,0,0c.18.19.38.36.56.54l.12.11,2.2,2.09.12.11c.4.39.81.78,1.23,1.15s.95.89,1.44,1.33,1,.88,1.46,1.33,1.15,1,1.75,1.57l1.75,1.57,1,.9c.62.56,1.26,1.11,1.91,1.67,1.9,1.63,3.82,3.25,5.76,4.84l1.77,1.45.85.69c.85.69,1.71,1.37,2.58,2.05.47.38,1,.75,1.43,1.12q1.36,1.08,2.76,2.13l.67.52.19.14c.58.43,1.14.86,1.72,1.28,1.19.9,2.4,1.78,3.61,2.66l.34.25,2.16,1.56.54.38c.81.57,1.61,1.14,2.44,1.7s1.87,1.31,2.82,1.95l2.64,1.77,1.16.77,2.59,1.69,1,.62c.69.45,1.39.89,2.09,1.33l1.24.77c.8.51,1.6,1,2.41,1.49,1.39.85,2.8,1.69,4.21,2.52,1.09.64,2.15,1.26,3.23,1.87s2.34,1.33,3.52,2l3,1.65c.38.21.77.42,1.17.62,1,.53,1.94,1,2.94,1.56s2.25,1.17,3.38,1.75l.19.09,3.11,1.55,1.4.68c.92.44,1.82.88,2.73,1.3,1.36.64,2.72,1.28,4.09,1.9l.12,0c1,.48,2.08.94,3.12,1.4l3.49,1.52.3.12q3.66,1.56,7.38,3c1.25.5,2.5,1,3.75,1.45,1.06.4,2.11.8,3.17,1.18l1.54.56.41.14c1,.36,1.95.7,2.93,1l.45.16,2.92,1,3.83,1.24,2.79.87,2.25.68,2.17.64c1,.31,2.09.6,3.14.89.73.21,1.46.41,2.2.6,1,.28,2,.54,3,.8s2.23.57,3.35.84l1.2.29,3.34.79c1.3.3,2.6.59,3.9.86l.39.08c.92.2,1.86.4,2.81.58l2,.4,2.31.44.77.14.57.1q1.16.23,2.34.42l.39.07c.64.12,1.27.23,1.91.32l2.29.38c.69.11,1.36.21,2.05.3s1.6.25,2.4.36q1.88.27,3.75.51.49.08,1,.12l2.47.31,2,.22c.44,0,.85.1,1.27.13.92.1,1.84.2,2.76.28,2,.2,4,.37,6,.51.63.06,1.25.1,1.88.14.9.07,1.81.13,2.72.18h.11l2.25.12.5,0,.88,0c.68,0,1.37.07,2.06.08.93,0,1.87.08,2.82.1l1,0c.83,0,1.67,0,2.5.06h.34l1.18,0,3.9,0,3.9,0,1.53,0,2.49-.06,1,0c1,0,1.89-.06,2.84-.1.67,0,1.37-.05,2-.08l.89,0,2.86-.15q5.32-.31,10.62-.83c.92-.08,1.84-.18,2.76-.28.42,0,.85-.08,1.27-.13l2-.22,2.47-.31q.49,0,1-.12,1.88-.24,3.75-.51l2.42-.36c1.44-.2,2.88-.43,4.33-.68.63-.09,1.26-.2,1.9-.32,1.1-.18,2.21-.38,3.31-.59s2-.38,3.07-.58l2-.4c.94-.18,1.88-.38,2.81-.58l.38-.08c1.31-.27,2.6-.56,3.9-.86,1.52-.34,3-.7,4.54-1.08,1.12-.27,2.25-.55,3.35-.84s2-.52,3-.8c.75-.19,1.47-.39,2.21-.6,1-.29,2.09-.58,3.15-.89l2.15-.64c1.68-.5,3.37-1,5-1.55l3.85-1.24c1.11-.38,2.23-.75,3.35-1.15s2.25-.77,3.35-1.17l1.53-.56c1.06-.38,2.12-.78,3.17-1.18,1.26-.47,2.51-1,3.76-1.45,2.47-1,4.94-2,7.37-3l.3-.12,3.49-1.52,3.24-1.45c1.37-.62,2.73-1.26,4.09-1.9.91-.42,1.83-.86,2.73-1.3,1.58-.76,3.14-1.54,4.7-2.32,1.15-.58,2.27-1.16,3.4-1.75s2-1,2.93-1.56c.4-.2.78-.41,1.16-.62l3-1.65c1.18-.65,2.35-1.31,3.53-2s2.15-1.23,3.22-1.87q4-2.34,7.86-4.78c.7-.44,1.4-.88,2.09-1.33l1-.62,2.6-1.69c2.22-1.47,4.43-3,6.63-4.49l2.42-1.7c.18-.13.37-.25.54-.38l2.16-1.56c1.33-1,2.65-1.92,4-2.91l1.9-1.42c2.81-2.13,5.56-4.3,8.29-6.51.6-.48,1.18-1,1.77-1.45q4.41-3.63,8.71-7.41v77.82h123.79V0Zm-62.72,773.57c-36,46.8-84.71,75.52-138.28,75.52-81.93,0-152.42-56.33-183.71-147.67a246.45,246.45,0,0,1-17-90.58c0-1.73,0-3.46.06-5.18,2.46-121.6,91.36-219.33,200.67-219.33,106.51,0,193.66,92.81,200.31,210.07v0q.4,7.16.41,14.42C6969.21,674.89,6945.23,732.67,6906.76,773.57Z"/><path id="u-2" data-name="u" class="cls-1" d="M6376.11,247.59V973.33H6252.33V895.5q-4.29,3.79-8.71,7.42l-1.77,1.45q-4.1,3.32-8.29,6.51l-1.91,1.42c-1.31,1-2.62,2-3.95,2.91l-2.16,1.56-.54.38c-.81.57-1.61,1.14-2.43,1.7-2.19,1.53-4.4,3-6.63,4.49l-2.59,1.69-1,.62c-.69.45-1.39.89-2.09,1.32q-3.9,2.46-7.86,4.79c-1.08.63-2.15,1.26-3.23,1.87s-2.34,1.33-3.52,2l-3,1.65-1.16.62-2.94,1.56c-1.12.59-2.25,1.17-3.39,1.75-1.56.78-3.12,1.56-4.7,2.32-.91.44-1.82.88-2.73,1.3-1.36.64-2.72,1.28-4.09,1.9l-3.24,1.45-3.49,1.52-.3.12c-2.44,1-4.9,2.05-7.37,3-1.25.5-2.5,1-3.76,1.45-1.06.4-2.11.8-3.17,1.18-.51.19-1,.38-1.53.55-1.11.41-2.23.8-3.35,1.18s-2.24.77-3.36,1.15l-3.84,1.24c-1.67.53-3.36,1.05-5,1.55l-2.16.64-3.15.89c-.73.21-1.46.41-2.2.6l-3,.8c-1.11.29-2.23.57-3.35.84-1.51.38-3,.73-4.54,1.08l-3.9.86a2.53,2.53,0,0,1-.38.07c-.93.21-1.87.41-2.82.59l-2,.4c-1,.2-2,.4-3.08.58s-2.2.41-3.3.59c-.64.11-1.27.23-1.91.32-1.44.25-2.88.48-4.33.68-.8.13-1.61.25-2.41.36q-1.87.27-3.75.51-.49.08-1,.12l-2.47.31-2,.22c-.43,0-.85.1-1.27.13-.92.1-1.84.2-2.76.28q-5.3.51-10.63.83L6066,973l-.89,0-2.05.08c-.94,0-1.88.08-2.83.1l-1,0-2.49.06-1.53,0q-1.95,0-3.9,0t-3.9,0h-1.53l-2.49-.06-1,0c-.95,0-1.89-.06-2.83-.1l-2.05-.08-.89,0-.49,0-2.25-.12h-.11q-1.36-.07-2.73-.18l-1.87-.14q-3-.21-6-.51c-.92-.08-1.84-.18-2.76-.28-.42,0-.84-.09-1.27-.13l-2-.22-2.47-.31q-.49,0-1-.12-1.87-.24-3.75-.51c-.8-.11-1.61-.23-2.41-.36s-1.36-.19-2-.3l-2.29-.38c-.64-.09-1.27-.21-1.91-.32l-.39-.07c-.79-.13-1.57-.27-2.35-.42l-.56-.1-.77-.14-2.31-.44-2-.4c-.95-.18-1.89-.38-2.82-.59a2.53,2.53,0,0,1-.38-.07l-3.9-.86-3.34-.79-1.2-.29c-1.12-.27-2.24-.55-3.35-.84l-3-.8c-.74-.19-1.47-.39-2.2-.6l-3.15-.89-2.16-.64c-.75-.22-1.51-.45-2.26-.69l-2.78-.86-3.84-1.24-2.92-1-.44-.16c-1-.33-2-.67-2.93-1l-.42-.15c-.51-.17-1-.36-1.53-.55-1.06-.38-2.11-.78-3.17-1.18-1.26-.47-2.51-1-3.76-1.45q-3.7-1.45-7.37-3l-.3-.12-3.49-1.52c-1-.46-2.08-.92-3.12-1.4l-.12,0c-1.37-.62-2.73-1.26-4.09-1.9-.91-.42-1.82-.86-2.73-1.3-.47-.22-.94-.45-1.4-.69l-3.11-1.54-.19-.09c-1.14-.58-2.27-1.16-3.39-1.75l-2.94-1.56-1.16-.62-3-1.65c-1.18-.65-2.35-1.31-3.52-2s-2.15-1.24-3.23-1.87c-1.41-.83-2.82-1.67-4.21-2.52-.81-.49-1.61-1-2.41-1.49-.41-.25-.83-.51-1.24-.78-.7-.43-1.4-.87-2.09-1.32l-1-.62-2.59-1.69-1.16-.77-2.64-1.77c-.95-.64-1.89-1.29-2.83-1.95s-1.62-1.13-2.43-1.7l-.54-.38-2.16-1.56-.35-.25c-1.21-.88-2.41-1.76-3.6-2.66-.58-.42-1.14-.85-1.72-1.28l-.19-.14-.67-.52q-1.4-1.05-2.76-2.13c-.48-.37-1-.74-1.43-1.12-.87-.68-1.73-1.36-2.58-2.05l-.85-.69-1.77-1.45q-2.91-2.38-5.76-4.85c-.65-.55-1.29-1.11-1.92-1.66l-1-.91-1.76-1.56c-.59-.52-1.17-1.05-1.75-1.58l-1.45-1.32c-.49-.44-1-.89-1.44-1.33l-1.24-1.15-.11-.11c-.74-.69-1.47-1.39-2.2-2.09l-.12-.11-.57-.54,0,0c-.92-.89-1.84-1.78-2.75-2.68-.18-.16-.35-.33-.51-.49-1.09-1.08-2.16-2.16-3.23-3.24l-.71-.72c-.8-.81-1.59-1.62-2.37-2.44-.17-.18-.34-.35-.5-.53l-1.51-1.58c-.5-.52-1-1-1.49-1.58-1-1-1.95-2.1-2.92-3.17l-.67-.74c-.86-1-1.72-1.91-2.57-2.88l-.49-.54-.27-.31c-.53-.61-1.07-1.21-1.59-1.83s-1.19-1.36-1.76-2.05l-.47-.54c-.57-.66-1.12-1.32-1.68-2l-.21-.26c-.41-.48-.81-1-1.2-1.45-.62-.74-1.23-1.49-1.84-2.23-1.09-1.34-2.17-2.7-3.25-4.06q-1.34-1.7-2.66-3.42a1.86,1.86,0,0,1-.21-.28l-.19-.24c-.47-.61-.94-1.21-1.39-1.82-.24-.31-.47-.63-.7-.94l-.12-.16c-.25-.31-.47-.61-.69-.92a1,1,0,0,1-.08-.11c-.76-1-1.51-2-2.25-3-.11-.13-.2-.26-.3-.4l-2.4-3.34c-1.09-1.54-2.18-3.09-3.25-4.65-.67-1-1.34-2-2-2.95s-1.17-1.76-1.75-2.64l-.28-.41c-.63-1-1.26-1.93-1.88-2.91s-1.28-2-1.92-3l-.14-.22c-.42-.65-.83-1.31-1.23-2-.26-.42-.52-.83-.77-1.25s-.51-.83-.76-1.24c-.66-1.08-1.32-2.17-2-3.26l-.34-.56c-.71-1.19-1.4-2.38-2.09-3.59s-1.33-2.31-2-3.48c-.55-1-1.09-2-1.63-2.92s-1-1.86-1.53-2.8c-.42-.76-.83-1.53-1.23-2.29l-1.36-2.6c-.65-1.21-1.27-2.43-1.89-3.65q-1.05-2.07-2.07-4.14c-.11-.21-.21-.41-.3-.61-.41-.82-.8-1.64-1.2-2.46l-.19-.4-.16-.33c-.5-1-1-2.1-1.49-3.16s-1-2.2-1.53-3.31q-1.65-3.61-3.23-7.28c-.33-.77-.66-1.54-1-2.31l-.64-1.51c-.16-.37-.31-.75-.46-1.11l-.38-.93c-.57-1.37-1.12-2.73-1.67-4.11l0,0-.17-.44c-.55-1.4-1.11-2.8-1.64-4.21-.47-1.22-.93-2.44-1.38-3.67l-.18-.47c0-.08-.05-.15-.08-.22-.31-.83-.61-1.67-.91-2.5s-.62-1.72-.92-2.57c-.45-1.28-.9-2.57-1.33-3.85-.21-.6-.41-1.21-.61-1.8-.43-1.26-.84-2.52-1.25-3.78,0-.12-.08-.24-.11-.36-.51-1.54-1-3.08-1.47-4.63s-1-3.23-1.47-4.86-.95-3.27-1.41-4.9c-.23-.82-.46-1.64-.68-2.46s-.45-1.64-.67-2.47c-.44-1.65-.87-3.29-1.29-4.95l-.22-.85c-.24-.94-.47-1.89-.7-2.84-.1-.4-.19-.81-.29-1.21a2.61,2.61,0,0,1-.06-.27c-.18-.71-.34-1.43-.51-2.14s-.33-1.42-.49-2.14-.3-1.29-.43-1.94-.34-1.51-.5-2.27-.36-1.67-.53-2.51-.41-1.94-.6-2.91c-.1-.44-.18-.88-.27-1.32-.22-1.12-.44-2.24-.64-3.36-.14-.69-.27-1.39-.4-2.09-.09-.5-.18-1-.26-1.48-.22-1.19-.43-2.4-.63-3.6,0-.1,0-.2-.05-.3-.28-1.66-.55-3.32-.81-5-.22-1.34-.42-2.68-.61-4-.07-.41-.12-.83-.18-1.24l0-.21c-.13-.92-.26-1.82-.38-2.73l-.06-.43c-.09-.71-.19-1.42-.28-2.13-.11-.9-.23-1.8-.33-2.69,0,0,0-.08,0-.12-.09-.7-.17-1.4-.25-2.1-.14-1.21-.27-2.41-.39-3.61-.05-.34-.08-.68-.11-1-.06-.51-.11-1-.16-1.54-.08-.75-.15-1.51-.22-2.27s-.15-1.57-.22-2.37c-.1-1.07-.19-2.13-.27-3.2-.07-.81-.13-1.62-.19-2.44-.09-1.15-.17-2.3-.25-3.46l-.09-1.44c-.07-1.08-.14-2.18-.19-3.26,0-.69-.08-1.39-.11-2.09s-.06-1.23-.09-1.84-.05-1.24-.08-1.86c0-.38,0-.76,0-1.14,0-1-.08-2-.1-3s-.06-1.91-.08-2.87q-.12-4.84-.12-9.72V247.59h123.78V592.16l.46,18.3c6.9,143.49,94.05,238.63,200.54,238.63,109.47,0,198.5-119.88,200.94-269,0-1.05,0-2.1,0-3.15s0-2.1,0-3.15V247.59Z"/><g id="i"><circle class="cls-1" cx="7287.61" cy="64" r="61.43"/><rect class="cls-1" x="7226.46" y="253.2" width="123.78" height="720.13" transform="translate(14576.69 1226.53) rotate(180)"/></g><g id="s"><path class="cls-1" d="M5260.84,666.78a197.65,197.65,0,0,1,27.71,92.62A197.65,197.65,0,0,1,5260.84,852c-17.38,29.53-42.19,55.32-72.33,75.61-43.32,29.17-97.65,47-156.8,48.07q-3,.06-5.94.06t-5.94-.06c-59.05-1.11-113.3-18.84-156.58-47.92-30.23-20.31-55.12-46.16-72.54-75.76A197.81,197.81,0,0,1,4763,760.51V759.4h123.57c.25,35.33,45.53,65.05,107.13,74,12.45,1.83,18.5,2.8,32,2.8a269.16,269.16,0,0,0,39.09-2.8c61.61-9,98.89-38.7,99.14-74v-.29c0-37.41-42.53-68.61-109.56-75.63a272.9,272.9,0,0,0-28.67-1.49q-4.86,0-9.65.17c-1.92,0-3.83-.13-5.74-.23-55.38-2.71-106.16-20.07-147.12-47.59a253.91,253.91,0,0,1-27.89-21.66,228.3,228.3,0,0,1-44.66-54.1A197.81,197.81,0,0,1,4763,467.07v-2.22a197.81,197.81,0,0,1,27.67-91.51c17.42-29.6,42.31-55.45,72.54-75.76,43.28-29.08,97.53-46.81,156.58-47.92q3-.06,5.94-.06t5.94.06c59.15,1.11,113.48,18.9,156.8,48.07,30.14,20.29,54.95,46.08,72.33,75.61A197.65,197.65,0,0,1,5288.55,466H5164c0-36.22-47.4-66.6-111.24-74.86-11.21-1.46-14.93-2.23-27-2.23a271.06,271.06,0,0,0-35,2.23c-63.84,8.26-104.15,38.64-104.19,74.86v0c0,36.49,41,67.06,105.54,75.07a270.61,270.61,0,0,0,29.25,2c1.46,0,2.92,0,4.37,0s2.93,0,4.37,0l1.57,0c59.15,1.11,113.48,18.9,156.8,48.07C5218.65,611.46,5243.46,637.25,5260.84,666.78Z"/></g></g></g></g></g></svg>