<svg xmlns="http://www.w3.org/2000/svg" viewBox="0 0 733.41 279.84"><defs><style>.cls-1{fill:#fff;}</style></defs><title>logo</title><g id="Слой_2" data-name="Слой 2"><g id="Слой_1-2" data-name="Слой 1"><g id="ILYA"><path id="A" class="cls-1" d="M656,279.74h77.4l-19.32-53.35-12-33L632.17.1H554.7L484.44,193.36l-12,33L453,279.74H533l16.7-53.34h89.08ZM621.43,173h-55l27-86.47Z"/><polygon id="Y" class="cls-1" points="491.74 0.2 414.34 0.2 366.56 125.22 318.76 0.2 241.38 0.2 327.8 193.24 327.8 279.84 405.2 279.84 405.2 193.49 491.74 0.2"/><polygon id="L" class="cls-1" points="202.62 226.4 202.62 0.2 125.23 0.2 125.23 202.45 125.23 279.84 202.62 279.84 280.02 279.84 280.02 226.4 202.62 226.4"/><rect id="I" class="cls-1" width="77.39" height="279.84"/></g></g></g></svg>