<svg xmlns="http://www.w3.org/2000/svg" viewBox="0 0 733.41 279.84">
 <style>svg{fill:#fff}</style>

<path d="m656 279.74h77.4l-19.32-53.35-12-33-69.91-193.29h-77.47l-70.26 193.26-12 33-19.44 53.38h80l16.7-53.34h89.08zm-34.57-106.74h-55l27-86.47z"/>
<polygon points="491.74 0.2 414.34 0.2 366.56 125.22 318.76 0.2 241.38 0.2 327.8 193.24 327.8 279.84 405.2 279.84 405.2 193.49"/>
<polygon points="202.62 226.4 202.62 0.2 125.23 0.2 125.23 202.45 125.23 279.84 202.62 279.84 280.02 279.84 280.02 226.4"/>
<rect width="77.39" height="279.84"/>

</svg>
