<?xml version="1.0" encoding="utf-8"?>
<!-- Generator: Adobe Illustrator 22.1.0, SVG Export Plug-In . SVG Version: 6.00 Build 0)  -->
<svg version="1.1" id="Слой_1" xmlns="http://www.w3.org/2000/svg" xmlns:xlink="http://www.w3.org/1999/xlink" x="0px" y="0px"
	 viewBox="0 0 3627.1 981.5" style="enable-background:new 0 0 3627.1 981.5;" xml:space="preserve">
<style type="text/css">
	.st0{fill:#191919;}
</style>
<title>Ресурс 1</title>
<g id="Слой_2_1_">
	<g id="Слой_2-2">
		<path class="st0" d="M1342.4,558.8c-22.8-175.5-158.2-310.3-321.8-310.3c-21.5,0-43,2.3-64,7c-133.8,29.8-238,151.3-257.7,303.3
			c-2.3,17.4-3.4,35-3.4,52.5c0,7.1,0.2,14.1,0.5,21.1c1.1,22,4,43.9,8.8,65.4c3,13.7,6.7,27.1,11.1,40.4c2.9,8.6,6,17,9.5,25.3
			c5.7,13.7,12.2,27.1,19.5,40.1c13.2,23.6,29,45.6,47.1,65.7c45.3,50,103.6,85.3,168.8,98.8c19.7,4.1,39.8,6.2,60,6.2
			c89.2,0,170-40.1,228.7-105c18.1-20.1,33.9-42.1,47.1-65.7h-172.3c-30.3,20.3-65.7,32-103.6,32c-12.5,0-24.9-1.3-37.1-3.8
			c-23.8-5-46.4-14.6-66.5-28.2c-16.5-11.2-31.4-24.6-44.1-40c-6.6-8-12.6-16.4-18.1-25.3c-7.9-12.8-14.5-26.3-19.7-40.4h501.3
			c4.7-21.5,7.6-43.4,8.8-65.4c0.4-7,0.5-14,0.5-21.1C1345.8,593.8,1344.7,576.3,1342.4,558.8z M821.8,560.1
			c12.2-93.9,76.6-164.2,159.3-182.7c13-2.9,26.3-4.4,39.6-4.4c101.1,0,184.8,78.5,198.9,187c0.6,4.3,1,8.7,1.4,13.2H820.4
			C820.8,568.8,821.3,564.4,821.8,560.1L821.8,560.1z"/>
		<path class="st0" d="M2520.4,558.8c-22.8-175.5-158.2-310.3-321.8-310.3c-21.5,0-43,2.3-64,7c-133.8,29.8-238,151.3-257.7,303.3
			c-2.3,17.4-3.4,35-3.4,52.5c0,7.1,0.2,14.1,0.5,21.1c1.1,22,4,43.9,8.8,65.4c3,13.7,6.7,27.1,11.1,40.4c2.9,8.6,6,17,9.4,25.3
			c5.7,13.7,12.2,27.1,19.4,40.1c13.2,23.6,29,45.6,47.1,65.7c45.3,50,103.6,85.3,168.8,98.8c19.7,4.1,39.8,6.2,60,6.2
			c89.2,0,170-40.1,228.7-105c18.1-20.1,33.9-42.1,47.1-65.7h-172.3c-30.3,20.3-65.7,32-103.6,32c-12.5,0-24.9-1.3-37.1-3.8
			c-23.8-5-46.4-14.6-66.5-28.2c-16.5-11.2-31.4-24.7-44.1-40.1c-6.6-8-12.6-16.4-18.1-25.3c-7.9-12.8-14.5-26.3-19.7-40.4h501.3
			c4.7-21.5,7.6-43.4,8.8-65.4c0.4-7,0.5-14,0.5-21.1C2523.8,593.7,2522.7,576.2,2520.4,558.8z M1999.8,560.1
			c12.2-93.9,76.6-164.2,159.3-182.6c13-2.9,26.3-4.4,39.6-4.4c101.1,0,184.8,78.5,198.9,187c0.6,4.3,1,8.7,1.4,13.2h-400.4
			C1998.8,568.8,1999.3,564.4,1999.8,560.1L1999.8,560.1z"/>
		<path id="r_serif" class="st0" d="M2924,248.5c-75.8,0-145.5,22.2-200.7,59.3v-58.9H2599v725.4h124.3v-430v-18.6
			c0-92.6,86-149.4,193.6-152.6h73.9V248.5H2924z"/>
		<path id="o" class="st0" d="M3302.3,255.8c-179.4,0-324.8,162.5-324.8,362.9s145.4,362.9,324.8,362.9s324.8-162.5,324.8-362.9
			S3481.7,255.8,3302.3,255.8z M3302.3,857.3c-110.9,0-200.7-114.8-200.7-238.6s89.9-238.3,200.7-238.3S3503,494.8,3503,618.7
			S3413.1,857.3,3302.3,857.3z"/>
		<path id="d" class="st0" d="M0,0.9v973.3h123.8v-78c0,10.1,44.2,33.1,52.5,37.7c20.5,11.5,42.3,20.5,64.9,26.9
			c45.3,13.1,93,15.6,139.5,7.5c96.5-17.3,167.9-78.8,216.1-162.4c37.3-64.6,56.3-140.1,52.7-214.7c-6-123.4-73.2-245.5-181.7-304.8
			S212,240.4,124.3,327.5L123.7,0.9H0z M124.1,611.8c0-4.8,0.1-9.6,0.4-14.4l0,0c6.6-117.3,93.8-210.1,200.3-210.1
			c109.3,0,198.2,97.7,200.7,219.3c0,1.7,0.1,3.5,0.1,5.2c0.1,31-5.7,61.7-17,90.6C477.2,793.7,406.7,850,324.8,850
			c-53.6,0-102.3-28.7-138.3-75.5C148,733.6,124.1,675.8,124.1,611.8z"/>
		<rect x="1407.9" class="st0" width="130.6" height="974.3"/>
		<rect x="1658.4" class="st0" width="130.6" height="974.3"/>
	</g>
</g>
</svg>
