<svg xmlns="http://www.w3.org/2000/svg" viewBox="0 0 87.22 21"><g id="Слой_2" data-name="Слой 2"><g id="Слой_2-2" data-name="Слой 2"><g id="nikita"><g id="a"><path class="cls-1" d="M87.22,9a9.55,9.55,0,0,0-2.79-6.21,9.79,9.79,0,0,0-2-1.53h0A9.54,9.54,0,0,0,77.66,0a8.94,8.94,0,0,0-1,.06,9.53,9.53,0,0,0-3.74,1.21h0a9.6,9.6,0,0,0-4.79,8.3v4.21A7.2,7.2,0,0,0,75.29,21h.3c.31,0,.62,0,.93,0a10,10,0,0,0,2.33-.51,9.78,9.78,0,0,0,3.39-2.05l.17-.16v2.21h4.81V9ZM81,14.76a4.9,4.9,0,0,1-3.5,1.45,4.61,4.61,0,0,1-4.6-4.46V9.24a4.6,4.6,0,0,1,4.6-4.43,4.92,4.92,0,0,1,4.94,4.94v1.67A4.86,4.86,0,0,1,81,14.76Z"/></g><g id="t"><path class="cls-1" d="M57.33.55V4.81h1.83v11c0,.12,0,.24,0,.37a4.61,4.61,0,0,0,4.59,4.24h2.57V16.21H66a2,2,0,0,1-2-2V4.81h2.37V.55Z"/></g><g id="i"><rect class="cls-1" x="49.72" y="0.55" width="4.81" height="19.89"/></g><g id="k"><path class="cls-1" d="M46.9,17.33v3.12H42.09V19.28c0-3.94-2.54-7-6.46-7.07l-.66.06c-.2,0-.4,0-.6,0v8.16h-4.8V.55h4.8v9.57C38,8.2,41,4.38,41,.55h4.77V.73a11.56,11.56,0,0,1-4.93,9.48A7.22,7.22,0,0,1,46.9,17.33Z"/></g><rect id="i-2" data-name="i" class="cls-1" x="21.96" y="0.55" width="4.81" height="19.89"/><g id="n"><path class="cls-1" d="M19.16,7.21V20.45h-4.8v-11a4.6,4.6,0,0,0-4.61-4.6h0A4.94,4.94,0,0,0,4.81,9.75v10.7H0V.55H4.81V2.78A9.93,9.93,0,0,1,8.39.55,10,10,0,0,1,11.65,0H12a7.33,7.33,0,0,1,2.78.55A7.22,7.22,0,0,1,19.16,7.21Z"/></g></g></g></g></svg>